<svg width="112" height="124" viewBox="0 0 112 124" fill="none" xmlns="http://www.w3.org/2000/svg">
<mask id="mask0_424_78" style="mask-type:alpha" maskUnits="userSpaceOnUse" x="0" y="0" width="112" height="124">
<path d="M70.4853 69.0711L69.7782 68.364L69.071 69.0711C67.2917 70.8504 64.8482 71.9609 62.1439 71.999L62.1436 71.999C62.049 72.0003 61.9545 72.0004 61.8599 71.999L61.8597 71.999C56.4017 71.9241 52 67.476 52 62C52 56.4771 56.4771 52 62 52C64.7166 52 67.1784 53.0819 68.9816 54.8406L69.6975 55.5389L70.3958 54.8229L73.1884 51.9591L73.8865 51.2432L73.1707 50.5451L73.1699 50.5443L73.1698 50.5442C72.1322 49.5325 70.9678 48.672 69.7115 47.981C68.2323 47.1674 66.6258 46.5885 64.9487 46.2741C61.8468 45.6924 58.6422 46.0411 55.738 47.2763C52.8338 48.5115 50.3598 50.5779 48.6271 53.2156C46.8944 55.8534 45.9805 58.9447 46.0003 62.1005C46.0201 65.2564 46.9728 68.3359 48.7385 70.9517C50.5042 73.5675 53.004 75.6027 55.9235 76.8012C58.843 77.9998 62.0518 78.3082 65.1461 77.6877C66.8191 77.3521 68.4182 76.7532 69.887 75.921C71.1335 75.2148 72.2861 74.3407 73.3103 73.3171L73.3105 73.3169L73.3137 73.3137L74.0208 72.6066L73.3137 71.8995L70.4853 69.0711L70.4853 69.0711Z" fill="black" stroke="black" stroke-width="2"/>
<path d="M71.7574 79.1284L72.4645 78.4213L73.1716 79.1284C73.8965 79.8534 74.8952 80.3 76 80.3C78.2091 80.3 80 78.5091 80 76.3C80 75.2285 79.58 74.2572 78.8936 73.5383L78.8935 73.5382C78.8517 73.4944 78.8089 73.4516 78.7652 73.4098L78.7651 73.4097C78.0459 72.7213 77.0732 72.3 76 72.3C74.9132 72.3 73.9293 72.7321 73.2074 73.4362L72.4915 74.1345L71.7932 73.4185L69.0006 70.5547L68.3024 69.8388L69.0183 69.1406C70.1264 68.0601 71.4657 67.2556 72.9277 66.7836C73.329 66.6541 73.7396 66.5496 74.1571 66.4713C76.0957 66.1078 78.0986 66.3257 79.9137 67.0977C81.7289 67.8696 83.2751 69.1612 84.3581 70.8098C85.441 72.4584 86.0122 74.3904 85.9998 76.3628C85.9874 78.3352 85.392 80.26 84.2884 81.8948C83.1849 83.5297 81.6225 84.8017 79.7978 85.5508C77.9731 86.2999 75.9676 86.4926 74.0337 86.1048L74.2303 85.1243L74.0337 86.1048C73.6172 86.0212 73.208 85.9116 72.8084 85.777C71.3524 85.2867 70.0233 84.4654 68.9289 83.3711L68.2218 82.664L68.9289 81.9568L71.7574 79.1284Z" fill="black" stroke="black" stroke-width="2"/>
<mask id="path-3-outside-1_424_78" maskUnits="userSpaceOnUse" x="30" y="30" width="56" height="61" fill="black">
<rect fill="white" x="30" y="30" width="56" height="61"/>
<path fill-rule="evenodd" clip-rule="evenodd" d="M48.8969 84.6952L47 87.9808L46.9967 87.9789C45.8365 87.3088 44.7253 86.5635 43.6698 85.7488C41.3726 83.9757 39.3391 81.8743 37.6375 79.5062C35.1533 76.0491 33.4333 72.1028 32.5919 67.9297C31.7504 63.7566 31.8068 59.4522 32.7572 55.3025C33.7076 51.1528 35.5303 47.2529 38.1041 43.862C40.678 40.4711 43.944 37.6668 47.6852 35.6355C51.4265 33.6042 55.5572 32.3924 59.8029 32.0806C64.0485 31.7688 68.312 32.3642 72.3098 33.8272C75.0482 34.8293 77.6191 36.2228 79.9446 37.9585C81.0141 38.7568 82.0317 39.6275 82.9899 40.5658L81.0348 42.5623C79.7865 40.4996 77.4494 39.0869 74.7518 39.0039L74.3332 38.6639L74.0795 38.9764C73.0657 38.4445 72.0155 37.9789 70.9352 37.5836C67.4704 36.3156 63.7754 35.7996 60.0958 36.0698C56.4162 36.34 52.8363 37.3903 49.5939 39.1508C46.3515 40.9112 43.5209 43.3416 41.2902 46.2804C39.0596 49.2192 37.4799 52.5991 36.6562 56.1955C35.8325 59.7919 35.7837 63.5224 36.5129 67.1391C37.2422 70.7558 38.7329 74.1759 40.8858 77.1721C40.9598 77.275 41.0345 77.3774 41.11 77.4792C42.8465 80.1625 45.23 82.4256 48.0534 84.0712L48.8969 84.6952Z"/>
</mask>
<path fill-rule="evenodd" clip-rule="evenodd" d="M48.8969 84.6952L47 87.9808L46.9967 87.9789C45.8365 87.3088 44.7253 86.5635 43.6698 85.7488C41.3726 83.9757 39.3391 81.8743 37.6375 79.5062C35.1533 76.0491 33.4333 72.1028 32.5919 67.9297C31.7504 63.7566 31.8068 59.4522 32.7572 55.3025C33.7076 51.1528 35.5303 47.2529 38.1041 43.862C40.678 40.4711 43.944 37.6668 47.6852 35.6355C51.4265 33.6042 55.5572 32.3924 59.8029 32.0806C64.0485 31.7688 68.312 32.3642 72.3098 33.8272C75.0482 34.8293 77.6191 36.2228 79.9446 37.9585C81.0141 38.7568 82.0317 39.6275 82.9899 40.5658L81.0348 42.5623C79.7865 40.4996 77.4494 39.0869 74.7518 39.0039L74.3332 38.6639L74.0795 38.9764C73.0657 38.4445 72.0155 37.9789 70.9352 37.5836C67.4704 36.3156 63.7754 35.7996 60.0958 36.0698C56.4162 36.34 52.8363 37.3903 49.5939 39.1508C46.3515 40.9112 43.5209 43.3416 41.2902 46.2804C39.0596 49.2192 37.4799 52.5991 36.6562 56.1955C35.8325 59.7919 35.7837 63.5224 36.5129 67.1391C37.2422 70.7558 38.7329 74.1759 40.8858 77.1721C40.9598 77.275 41.0345 77.3774 41.11 77.4792C42.8465 80.1625 45.23 82.4256 48.0534 84.0712L48.8969 84.6952Z" fill="black"/>
<path d="M47 87.9808L45.9992 89.7124L47.7316 90.7136L48.732 88.9808L47 87.9808ZM48.8969 84.6952L50.629 85.6952L51.5216 84.1491L50.0863 83.0873L48.8969 84.6952ZM46.9967 87.9789L47.9975 86.2473L47.9969 86.247L46.9967 87.9789ZM43.6698 85.7488L42.4478 87.332L42.4478 87.332L43.6698 85.7488ZM37.6375 79.5062L39.2617 78.3392L39.2617 78.3392L37.6375 79.5062ZM32.5919 67.9297L30.6313 68.325L30.6313 68.325L32.5919 67.9297ZM32.7572 55.3025L34.7067 55.749L34.7067 55.749L32.7572 55.3025ZM38.1041 43.862L39.6972 45.0712L39.6972 45.0712L38.1041 43.862ZM47.6852 35.6355L48.6396 37.3931L48.6396 37.3931L47.6852 35.6355ZM59.8029 32.0806L59.6564 30.0859L59.6564 30.0859L59.8029 32.0806ZM72.3098 33.8272L72.9971 31.949L72.9971 31.949L72.3098 33.8272ZM79.9446 37.9585L78.7483 39.5613L78.7483 39.5613L79.9446 37.9585ZM82.9899 40.5658L84.4188 41.9651L85.8182 40.5362L84.3892 39.1369L82.9899 40.5658ZM81.0348 42.5623L79.3237 43.5978L80.6592 45.8044L82.4637 43.9616L81.0348 42.5623ZM74.7518 39.0039L73.4911 40.5564L74.0153 40.9821L74.6903 41.0029L74.7518 39.0039ZM74.3332 38.6639L75.594 37.1114L74.0415 35.8506L72.7807 37.4032L74.3332 38.6639ZM74.0795 38.9764L73.1503 40.7475L74.6 41.5081L75.6321 40.2372L74.0795 38.9764ZM70.9352 37.5836L71.6225 35.7054L71.6225 35.7054L70.9352 37.5836ZM60.0958 36.0698L59.9493 34.0752L59.9493 34.0752L60.0958 36.0698ZM49.5939 39.1508L48.6396 37.3931L48.6396 37.3931L49.5939 39.1508ZM41.2902 46.2804L39.6972 45.0712L39.6972 45.0712L41.2902 46.2804ZM36.6562 56.1955L34.7067 55.749L34.7067 55.749L36.6562 56.1955ZM36.5129 67.1391L34.5524 67.5344L34.5524 67.5344L36.5129 67.1391ZM40.8858 77.1721L39.2617 78.3392L39.2617 78.3392L40.8858 77.1721ZM41.11 77.4792L42.789 76.3926L42.7546 76.3394L42.7169 76.2885L41.11 77.4792ZM48.0534 84.0712L49.2428 82.4633L49.1549 82.3983L49.0605 82.3433L48.0534 84.0712ZM48.732 88.9808L50.629 85.6952L47.1649 83.6952L45.2679 86.9808L48.732 88.9808ZM45.996 89.7105L45.9992 89.7124L48.0008 86.2492L47.9975 86.2473L45.996 89.7105ZM42.4478 87.332C43.5737 88.201 44.7589 88.9961 45.9965 89.7108L47.9969 86.247C46.9141 85.6216 45.877 84.9259 44.8918 84.1655L42.4478 87.332ZM36.0133 80.6733C37.8284 83.1993 39.9975 85.4408 42.4478 87.332L44.8918 84.1655C42.7478 82.5107 40.8498 80.5493 39.2617 78.3392L36.0133 80.6733ZM30.6313 68.325C31.5289 72.7764 33.3635 76.9857 36.0133 80.6733L39.2617 78.3392C36.9431 75.1125 35.3378 71.4293 34.5524 67.5344L30.6313 68.325ZM30.8076 54.856C29.7939 59.2823 29.7338 63.8737 30.6313 68.325L34.5524 67.5344C33.7671 63.6395 33.8196 59.622 34.7067 55.749L30.8076 54.856ZM36.511 42.6528C33.7656 46.2698 31.8214 50.4297 30.8076 54.856L34.7067 55.749C35.5937 51.876 37.2949 48.2361 39.6972 45.0712L36.511 42.6528ZM46.7309 33.8779C42.7403 36.0446 39.2565 39.0358 36.511 42.6528L39.6972 45.0712C42.0994 41.9064 45.1477 39.289 48.6396 37.3931L46.7309 33.8779ZM59.6564 30.0859C55.1277 30.4185 50.7216 31.7111 46.7309 33.8779L48.6396 37.3931C52.1314 35.4972 55.9867 34.3662 59.9493 34.0752L59.6564 30.0859ZM72.9971 31.949C68.7328 30.3885 64.1851 29.7534 59.6564 30.0859L59.9493 34.0752C63.912 33.7842 67.8912 34.3399 71.6225 35.7054L72.9971 31.949ZM81.1409 36.3558C78.6604 34.5043 75.9181 33.0179 72.9971 31.949L71.6225 35.7054C74.1783 36.6407 76.5778 37.9413 78.7483 39.5613L81.1409 36.3558ZM84.3892 39.1369C83.3672 38.136 82.2817 37.2073 81.1409 36.3558L78.7483 39.5613C79.7465 40.3064 80.6963 41.119 81.5906 41.9948L84.3892 39.1369ZM82.4637 43.9616L84.4188 41.9651L81.561 39.1665L79.6059 41.163L82.4637 43.9616ZM74.6903 41.0029C76.7273 41.0657 78.4351 42.1295 79.3237 43.5978L82.7459 41.5268C81.1378 38.8697 78.1716 37.1082 74.8134 37.0048L74.6903 41.0029ZM73.0725 40.2165L73.4911 40.5564L76.0126 37.4513L75.594 37.1114L73.0725 40.2165ZM75.6321 40.2372L75.8858 39.9247L72.7807 37.4032L72.5269 37.7156L75.6321 40.2372ZM70.2478 39.4617C71.2451 39.8267 72.2145 40.2565 73.1503 40.7475L75.0087 37.2054C73.9169 36.6326 72.7859 36.1311 71.6225 35.7054L70.2478 39.4617ZM60.2423 38.0645C63.6388 37.815 67.0496 38.2913 70.2478 39.4617L71.6225 35.7054C67.8912 34.3399 63.912 33.7842 59.9493 34.0752L60.2423 38.0645ZM50.5482 40.9084C53.5412 39.2833 56.8457 38.3139 60.2423 38.0645L59.9493 34.0752C55.9867 34.3662 52.1314 35.4972 48.6396 37.3931L50.5482 40.9084ZM42.8833 47.4896C44.9424 44.7769 47.5552 42.5334 50.5482 40.9084L48.6396 37.3931C45.1477 39.289 42.0994 41.9064 39.6972 45.0712L42.8833 47.4896ZM38.6057 56.642C39.3661 53.3223 40.8242 50.2024 42.8833 47.4896L39.6972 45.0712C37.2949 48.2361 35.5937 51.876 34.7067 55.749L38.6057 56.642ZM38.4735 66.7438C37.8003 63.4053 37.8454 59.9617 38.6057 56.642L34.7067 55.749C33.8196 59.622 33.7671 63.6395 34.5524 67.5344L38.4735 66.7438ZM42.51 76.005C40.5226 73.2393 39.1467 70.0823 38.4735 66.7438L34.5524 67.5344C35.3378 71.4293 36.9431 75.1125 39.2617 78.3392L42.51 76.005ZM42.7169 76.2885C42.6473 76.1945 42.5783 76.1 42.51 76.005L39.2617 78.3392C39.3413 78.45 39.4218 78.5603 39.503 78.6699L42.7169 76.2885ZM49.0605 82.3433C46.5021 80.8521 44.3511 78.8064 42.789 76.3926L39.4309 78.5658C41.3419 81.5187 43.9579 83.9991 47.0462 85.7991L49.0605 82.3433ZM50.0863 83.0873L49.2428 82.4633L46.864 85.6791L47.7075 86.3031L50.0863 83.0873Z" fill="black" mask="url(#path-3-outside-1_424_78)"/>
<mask id="path-5-outside-2_424_78" maskUnits="userSpaceOnUse" x="65.0984" y="36" width="23" height="23" fill="black">
<rect fill="white" x="65.0984" y="36" width="23" height="23"/>
<path fill-rule="evenodd" clip-rule="evenodd" d="M71.1317 50.3334L68.0984 51.9344L68.0997 51.9369C68.7462 53.1609 69.6506 54.2256 70.7465 55.0597C70.9822 55.239 71.2267 55.4077 71.4794 55.565C72.9081 56.4544 74.5474 56.9483 76.2296 56.9962C77.9118 57.044 79.5765 56.6442 81.0535 55.8376C82.5304 55.031 83.7666 53.8464 84.6356 52.4053C85.5045 50.9641 85.975 49.3179 85.999 47.6352C86.0229 45.9525 85.5995 44.2936 84.7719 42.8283C83.9443 41.3629 82.7423 40.1437 81.2889 39.2954C81.0318 39.1453 80.7685 39.0078 80.4999 38.8832C79.2499 38.3029 77.8852 38 76.4999 38V40.4235L79.7471 43.0604C81.113 44.0611 81.9999 45.677 81.9999 47.5C81.9999 50.5376 79.5375 53 76.4999 53C75.0694 53 73.7664 52.4539 72.7882 51.5587L71.1317 50.3334Z"/>
</mask>
<path fill-rule="evenodd" clip-rule="evenodd" d="M71.1317 50.3334L68.0984 51.9344L68.0997 51.9369C68.7462 53.1609 69.6506 54.2256 70.7465 55.0597C70.9822 55.239 71.2267 55.4077 71.4794 55.565C72.9081 56.4544 74.5474 56.9483 76.2296 56.9962C77.9118 57.044 79.5765 56.6442 81.0535 55.8376C82.5304 55.031 83.7666 53.8464 84.6356 52.4053C85.5045 50.9641 85.975 49.3179 85.999 47.6352C86.0229 45.9525 85.5995 44.2936 84.7719 42.8283C83.9443 41.3629 82.7423 40.1437 81.2889 39.2954C81.0318 39.1453 80.7685 39.0078 80.4999 38.8832C79.2499 38.3029 77.8852 38 76.4999 38V40.4235L79.7471 43.0604C81.113 44.0611 81.9999 45.677 81.9999 47.5C81.9999 50.5376 79.5375 53 76.4999 53C75.0694 53 73.7664 52.4539 72.7882 51.5587L71.1317 50.3334Z" fill="black"/>
<path d="M68.0984 51.9344L67.1648 50.1657L65.3958 51.0994L66.3298 52.8683L68.0984 51.9344ZM71.1317 50.3334L72.3212 48.7255L71.3102 47.9777L70.1982 48.5646L71.1317 50.3334ZM68.0997 51.9369L66.3311 52.8707L66.3312 52.871L68.0997 51.9369ZM70.7465 55.0597L71.9578 53.4682L71.9578 53.4682L70.7465 55.0597ZM71.4794 55.565L70.4224 57.2629L70.4224 57.2629L71.4794 55.565ZM76.2296 56.9962L76.2865 54.997L76.2865 54.997L76.2296 56.9962ZM81.0535 55.8376L80.0948 54.0823L80.0948 54.0823L81.0535 55.8376ZM84.6356 52.4053L82.9228 51.3726L82.9228 51.3726L84.6356 52.4053ZM85.999 47.6352L87.9988 47.6637L87.9988 47.6637L85.999 47.6352ZM84.7719 42.8283L83.0304 43.8118L83.0304 43.8118L84.7719 42.8283ZM81.2889 39.2954L82.2971 37.5681L82.2971 37.5681L81.2889 39.2954ZM80.4999 38.8832L81.342 37.0691L81.342 37.0691L80.4999 38.8832ZM76.4999 38V36H74.4999V38H76.4999ZM76.4999 40.4235H74.4999V41.3758L75.2392 41.976L76.4999 40.4235ZM79.7471 43.0604L78.4863 44.613L78.5249 44.6443L78.5651 44.6737L79.7471 43.0604ZM72.7882 51.5587L74.1383 50.0832L74.0614 50.0128L73.9776 49.9508L72.7882 51.5587ZM69.0319 53.7032L72.0653 52.1021L70.1982 48.5646L67.1648 50.1657L69.0319 53.7032ZM69.8683 51.0031L69.867 51.0006L66.3298 52.8683L66.3311 52.8707L69.8683 51.0031ZM71.9578 53.4682C71.0926 52.8097 70.3786 51.9691 69.8682 51.0028L66.3312 52.871C67.1139 54.3527 68.2087 55.6415 69.5353 56.6512L71.9578 53.4682ZM72.5364 53.8671C72.3368 53.7429 72.1438 53.6097 71.9578 53.4682L69.5353 56.6512C69.8206 56.8683 70.1166 57.0725 70.4224 57.2629L72.5364 53.8671ZM76.2865 54.997C74.9584 54.9591 73.6643 54.5692 72.5363 53.8671L70.4224 57.2629C72.1519 58.3395 74.1363 58.9374 76.1726 58.9953L76.2865 54.997ZM80.0948 54.0823C78.9288 54.7191 77.6145 55.0348 76.2865 54.997L76.1726 58.9953C78.209 59.0533 80.2242 58.5693 82.0121 57.5929L80.0948 54.0823ZM82.9228 51.3726C82.2368 52.5104 81.2609 53.4455 80.0948 54.0823L82.0121 57.5929C83.8 56.6164 85.2964 55.1825 86.3483 53.4379L82.9228 51.3726ZM83.9992 47.6067C83.9803 48.9352 83.6088 50.2348 82.9228 51.3726L86.3483 53.4379C87.4002 51.6933 87.9698 49.7006 87.9988 47.6637L83.9992 47.6067ZM83.0304 43.8118C83.6838 44.9686 84.0181 46.2783 83.9992 47.6067L87.9988 47.6637C88.0278 45.6267 87.5151 43.6186 86.5133 41.8448L83.0304 43.8118ZM80.2807 41.0227C81.4281 41.6924 82.3771 42.6549 83.0304 43.8118L86.5133 41.8448C85.5115 40.0709 84.0565 38.595 82.2971 37.5681L80.2807 41.0227ZM79.6578 40.6972C79.8699 40.7957 80.0777 40.9042 80.2807 41.0227L82.2971 37.5681C81.9859 37.3865 81.6672 37.22 81.342 37.0691L79.6578 40.6972ZM76.4999 40C77.5935 40 78.671 40.2391 79.6578 40.6972L81.342 37.0691C79.8289 36.3667 78.1768 36 76.4999 36V40ZM78.4999 40.4235V38H74.4999V40.4235H78.4999ZM81.0079 41.5078L77.7607 38.8709L75.2392 41.976L78.4863 44.613L81.0079 41.5078ZM83.9999 47.5C83.9999 45.0126 82.787 42.8083 80.9291 41.4471L78.5651 44.6737C79.439 45.314 79.9999 46.3413 79.9999 47.5H83.9999ZM76.4999 55C80.6421 55 83.9999 51.6421 83.9999 47.5H79.9999C79.9999 49.433 78.4329 51 76.4999 51V55ZM71.438 53.0342C72.7705 54.2535 74.5504 55 76.4999 55V51C75.5885 51 74.7623 50.6542 74.1383 50.0832L71.438 53.0342ZM73.9776 49.9508L72.3212 48.7255L69.9423 51.9413L71.5987 53.1666L73.9776 49.9508Z" fill="black" mask="url(#path-5-outside-2_424_78)"/>
<mask id="path-7-outside-3_424_78" maskUnits="userSpaceOnUse" x="85.3641" y="13.9907" width="24" height="24" fill="black">
<rect fill="white" x="85.3641" y="13.9907" width="24" height="24"/>
<path fill-rule="evenodd" clip-rule="evenodd" d="M91.2129 27.7928L88.3641 28.6051L88.3646 28.6068C88.7444 29.9377 89.4095 31.1666 90.3103 32.2096C90.4743 32.3994 90.646 32.5831 90.8253 32.7601C91.9899 33.9099 93.4318 34.7395 95.0112 35.1682C96.5906 35.597 98.2541 35.6104 99.8402 35.2072C101.426 34.8041 102.881 33.998 104.065 32.8671C105.248 31.7362 106.118 30.3188 106.593 28.7524C107.067 27.186 107.128 25.5237 106.771 23.9265C106.414 22.3294 105.65 20.8516 104.554 19.6364C104.385 19.4494 104.209 19.2696 104.027 19.0972C103.026 18.1504 101.828 17.4306 100.515 16.9913L100.514 16.9907L99.4034 20.3101L101.301 21.948L101.282 21.9704C102.411 22.9776 103.121 24.4433 103.121 26.075C103.121 29.1125 100.659 31.575 97.621 31.575C96.0947 31.575 94.7135 30.9532 93.7171 29.9491L91.2129 27.7928Z"/>
</mask>
<path fill-rule="evenodd" clip-rule="evenodd" d="M91.2129 27.7928L88.3641 28.6051L88.3646 28.6068C88.7444 29.9377 89.4095 31.1666 90.3103 32.2096C90.4743 32.3994 90.646 32.5831 90.8253 32.7601C91.9899 33.9099 93.4318 34.7395 95.0112 35.1682C96.5906 35.597 98.2541 35.6104 99.8402 35.2072C101.426 34.8041 102.881 33.998 104.065 32.8671C105.248 31.7362 106.118 30.3188 106.593 28.7524C107.067 27.186 107.128 25.5237 106.771 23.9265C106.414 22.3294 105.65 20.8516 104.554 19.6364C104.385 19.4494 104.209 19.2696 104.027 19.0972C103.026 18.1504 101.828 17.4306 100.515 16.9913L100.514 16.9907L99.4034 20.3101L101.301 21.948L101.282 21.9704C102.411 22.9776 103.121 24.4433 103.121 26.075C103.121 29.1125 100.659 31.575 97.621 31.575C96.0947 31.575 94.7135 30.9532 93.7171 29.9491L91.2129 27.7928Z" fill="black"/>
<path d="M88.3641 28.6051L87.8157 26.6818L85.8922 27.2302L86.4408 29.1537L88.3641 28.6051ZM91.2129 27.7928L92.518 26.2772L91.7011 25.5738L90.6645 25.8694L91.2129 27.7928ZM88.3646 28.6068L86.4413 29.1554L86.4414 29.1556L88.3646 28.6068ZM90.3103 32.2096L88.7967 33.5169L88.7967 33.5169L90.3103 32.2096ZM90.8253 32.7601L92.2305 31.3369L92.2305 31.3369L90.8253 32.7601ZM95.0112 35.1682L94.4872 37.0984L94.4872 37.0984L95.0112 35.1682ZM99.8402 35.2072L100.333 37.1456L100.333 37.1456L99.8402 35.2072ZM104.065 32.8671L102.683 31.4214L102.683 31.4214L104.065 32.8671ZM106.593 28.7524L108.507 29.3319L108.507 29.3319L106.593 28.7524ZM106.771 23.9265L108.723 23.49L108.723 23.49L106.771 23.9265ZM104.554 19.6364L106.039 18.2968L106.039 18.2967L104.554 19.6364ZM104.027 19.0972L105.401 17.644L105.401 17.644L104.027 19.0972ZM100.515 16.9913L101.15 15.0947L101.15 15.0946L100.515 16.9913ZM100.514 16.9907L101.148 15.094L99.2516 14.4595L98.6171 16.3562L100.514 16.9907ZM99.4034 20.3101L97.5067 19.6756L97.0811 20.9478L98.0967 21.8243L99.4034 20.3101ZM101.301 21.948L102.816 23.2546L104.122 21.7404L102.608 20.4338L101.301 21.948ZM101.282 21.9704L99.7679 20.6638L98.483 22.1528L99.9503 23.4625L101.282 21.9704ZM93.7171 29.9491L95.1367 28.5403L95.0815 28.4847L95.0221 28.4336L93.7171 29.9491ZM88.9126 30.5284L91.7614 29.7161L90.6645 25.8694L87.8157 26.6818L88.9126 30.5284ZM90.2879 28.0582L90.2874 28.0565L86.4408 29.1537L86.4413 29.1554L90.2879 28.0582ZM91.8239 30.9023C91.1128 30.0789 90.5877 29.1087 90.2878 28.058L86.4414 29.1556C86.9011 30.7667 87.7063 32.2543 88.7967 33.5169L91.8239 30.9023ZM92.2305 31.3369C92.0889 31.1971 91.9534 31.0521 91.8239 30.9023L88.7967 33.5169C88.9952 33.7467 89.2031 33.969 89.4201 34.1832L92.2305 31.3369ZM95.5351 33.2381C94.2882 32.8996 93.1499 32.2447 92.2305 31.3369L89.4201 34.1832C90.8298 35.5752 92.5753 36.5793 94.4872 37.0984L95.5351 33.2381ZM99.3475 33.2689C98.0953 33.5872 96.7821 33.5765 95.5351 33.2381L94.4872 37.0984C96.3992 37.6174 98.4128 37.6336 100.333 37.1456L99.3475 33.2689ZM102.683 31.4214C101.749 32.3142 100.6 32.9506 99.3475 33.2689L100.333 37.1456C102.253 36.6576 104.014 35.6818 105.447 34.3128L102.683 31.4214ZM104.678 28.173C104.304 29.4096 103.616 30.5286 102.683 31.4214L105.447 34.3128C106.879 32.9438 107.933 31.2281 108.507 29.3319L104.678 28.173ZM104.819 24.3631C105.101 25.624 105.053 26.9363 104.678 28.173L108.507 29.3319C109.081 27.4357 109.155 25.4234 108.723 23.49L104.819 24.3631ZM103.069 20.9761C103.934 21.9355 104.537 23.1022 104.819 24.3631L108.723 23.49C108.29 21.5566 107.366 19.7678 106.039 18.2968L103.069 20.9761ZM102.653 20.5504C102.797 20.6865 102.935 20.8285 103.069 20.9761L106.039 18.2967C105.834 18.0703 105.622 17.8526 105.401 17.644L102.653 20.5504ZM99.8806 18.8878C100.917 19.2347 101.862 19.8029 102.653 20.5504L105.401 17.644C104.189 16.4978 102.739 15.6265 101.15 15.0947L99.8806 18.8878ZM99.8793 18.8874L99.8809 18.8879L101.15 15.0946L101.148 15.094L99.8793 18.8874ZM101.3 20.9446L102.41 17.6252L98.6171 16.3562L97.5067 19.6756L101.3 20.9446ZM102.608 20.4338L100.71 18.7959L98.0967 21.8243L99.9948 23.4621L102.608 20.4338ZM102.796 23.277L102.816 23.2546L99.7872 20.6414L99.7679 20.6638L102.796 23.277ZM105.121 26.075C105.121 23.8498 104.149 21.8489 102.614 20.4783L99.9503 23.4625C100.672 24.1063 101.121 25.0368 101.121 26.075H105.121ZM97.621 33.575C101.763 33.575 105.121 30.2171 105.121 26.075H101.121C101.121 28.0079 99.554 29.575 97.621 29.575V33.575ZM92.2975 31.3579C93.654 32.7249 95.5401 33.575 97.621 33.575V29.575C96.6492 29.575 95.773 29.1815 95.1367 28.5403L92.2975 31.3579ZM95.0221 28.4336L92.518 26.2772L89.9079 29.3083L92.412 31.4646L95.0221 28.4336Z" fill="black" mask="url(#path-7-outside-3_424_78)"/>
<mask id="path-9-outside-4_424_78" maskUnits="userSpaceOnUse" x="0" y="0" width="108" height="124" fill="black">
<rect fill="white" width="108" height="124"/>
<path fill-rule="evenodd" clip-rule="evenodd" d="M104.426 104.426L101.75 101.75C100.409 103.07 98.9587 104.284 97.414 105.38C90.3402 111.155 81.9371 115.131 72.9251 116.924C62.0621 119.085 50.8024 117.976 40.5697 113.737C30.3371 109.499 21.5911 102.321 15.4377 93.112C9.28434 83.9028 6 73.0758 6 62C6 50.9243 9.28434 40.0973 15.4377 30.8881C21.5911 21.6789 30.3371 14.5013 40.5697 10.2628C50.8024 6.02427 62.0621 4.91528 72.925 7.07605C82.2732 8.93551 90.9661 13.1445 98.1998 19.2733L98.2007 19.2723L98.3321 19.3857C98.4446 19.4816 98.5567 19.5779 98.6684 19.6747L98.6678 19.6754L101.301 21.948L101.282 21.9704C101.414 22.0878 101.539 22.2114 101.659 22.3408L104.426 19.5736C103.481 18.6279 102.506 17.7162 101.504 16.8396C93.6134 9.93759 84.0325 5.2071 73.7054 3.15291C62.0666 0.837797 50.0026 2.026 39.039 6.56726C28.0754 11.1085 18.7047 18.7989 12.1118 28.6658C5.51894 38.5328 2 50.1332 2 62C2 73.8669 5.51894 85.4673 12.1118 95.3342C18.7047 105.201 28.0754 112.892 39.039 117.433C50.0026 121.974 62.0666 123.162 73.7054 120.847C84.0326 118.793 93.6134 114.062 101.504 107.16C102.506 106.284 103.481 105.372 104.426 104.426ZM90.8569 27.4862L93.7171 29.9491C93.7725 30.005 93.8291 30.0596 93.8869 30.1131L91.1579 32.8421C90.1973 31.8996 89.1939 31.0146 88.1516 30.1916L90.8569 27.4862Z"/>
</mask>
<path fill-rule="evenodd" clip-rule="evenodd" d="M104.426 104.426L101.75 101.75C100.409 103.07 98.9587 104.284 97.414 105.38C90.3402 111.155 81.9371 115.131 72.9251 116.924C62.0621 119.085 50.8024 117.976 40.5697 113.737C30.3371 109.499 21.5911 102.321 15.4377 93.112C9.28434 83.9028 6 73.0758 6 62C6 50.9243 9.28434 40.0973 15.4377 30.8881C21.5911 21.6789 30.3371 14.5013 40.5697 10.2628C50.8024 6.02427 62.0621 4.91528 72.925 7.07605C82.2732 8.93551 90.9661 13.1445 98.1998 19.2733L98.2007 19.2723L98.3321 19.3857C98.4446 19.4816 98.5567 19.5779 98.6684 19.6747L98.6678 19.6754L101.301 21.948L101.282 21.9704C101.414 22.0878 101.539 22.2114 101.659 22.3408L104.426 19.5736C103.481 18.6279 102.506 17.7162 101.504 16.8396C93.6134 9.93759 84.0325 5.2071 73.7054 3.15291C62.0666 0.837797 50.0026 2.026 39.039 6.56726C28.0754 11.1085 18.7047 18.7989 12.1118 28.6658C5.51894 38.5328 2 50.1332 2 62C2 73.8669 5.51894 85.4673 12.1118 95.3342C18.7047 105.201 28.0754 112.892 39.039 117.433C50.0026 121.974 62.0666 123.162 73.7054 120.847C84.0326 118.793 93.6134 114.062 101.504 107.16C102.506 106.284 103.481 105.372 104.426 104.426ZM90.8569 27.4862L93.7171 29.9491C93.7725 30.005 93.8291 30.0596 93.8869 30.1131L91.1579 32.8421C90.1973 31.8996 89.1939 31.0146 88.1516 30.1916L90.8569 27.4862Z" fill="black"/>
<path d="M101.75 101.75L103.165 100.336L101.762 98.9338L100.348 100.324L101.75 101.75ZM104.426 104.426L105.841 105.841L107.255 104.426L105.841 103.012L104.426 104.426ZM97.414 105.38L96.2565 103.749L96.2014 103.788L96.1492 103.831L97.414 105.38ZM72.9251 116.924L72.5349 114.962L72.5349 114.962L72.9251 116.924ZM40.5697 113.737L41.3351 111.89L41.3351 111.89L40.5697 113.737ZM6 62L8 62L8 62L6 62ZM15.4377 30.8881L13.7748 29.777L13.7748 29.777L15.4377 30.8881ZM40.5697 10.2628L39.8044 8.41502L39.8044 8.41502L40.5697 10.2628ZM72.925 7.07605L72.5349 9.03762L72.5349 9.03762L72.925 7.07605ZM98.1998 19.2733L96.907 20.7992L98.416 22.0778L99.7113 20.583L98.1998 19.2733ZM98.2007 19.2723L99.5073 17.7581L97.9963 16.4542L96.6892 17.9625L98.2007 19.2723ZM98.3321 19.3857L97.0254 20.8999L97.0345 20.9076L98.3321 19.3857ZM98.6684 19.6747L100.085 21.0868L101.599 19.5677L99.978 18.1631L98.6684 19.6747ZM98.6678 19.6754L97.2514 18.2633L95.734 19.7854L97.3612 21.1895L98.6678 19.6754ZM101.301 21.948L102.816 23.2545L104.122 21.7404L102.608 20.4338L101.301 21.948ZM101.282 21.9704L99.7678 20.6638L98.483 22.1528L99.9503 23.4625L101.282 21.9704ZM101.659 22.3408L100.191 23.6991L101.603 25.2253L103.073 23.755L101.659 22.3408ZM104.426 19.5736L105.841 20.9878L107.255 19.5736L105.841 18.1594L104.426 19.5736ZM101.504 16.8396L102.82 15.3342L102.82 15.3342L101.504 16.8396ZM73.7054 3.15291L74.0956 1.19134L74.0956 1.19134L73.7054 3.15291ZM39.039 6.56726L39.8044 8.41502L39.8044 8.41502L39.039 6.56726ZM12.1118 28.6658L13.7748 29.777L13.7748 29.777L12.1118 28.6658ZM12.1118 95.3342L13.7748 94.2231L13.7748 94.2231L12.1118 95.3342ZM39.039 117.433L39.8044 115.585L39.8044 115.585L39.039 117.433ZM73.7054 120.847L73.3152 118.886L73.3152 118.886L73.7054 120.847ZM101.504 107.16L100.187 105.655L100.187 105.655L101.504 107.16ZM93.7171 29.9491L95.1366 28.5402L95.0815 28.4847L95.0221 28.4336L93.7171 29.9491ZM90.8569 27.4862L92.162 25.9707L90.7553 24.7594L89.4427 26.072L90.8569 27.4862ZM93.8869 30.1131L95.3011 31.5273L96.7714 30.0571L95.2452 28.645L93.8869 30.1131ZM91.1579 32.8421L89.7572 34.2697L91.1713 35.6572L92.5721 34.2563L91.1579 32.8421ZM88.1516 30.1916L86.7374 28.7774L85.1471 30.3677L86.9122 31.7613L88.1516 30.1916ZM100.336 103.165L103.012 105.841L105.841 103.012L103.165 100.336L100.336 103.165ZM98.5714 107.011C100.203 105.854 101.735 104.571 103.153 103.176L100.348 100.324C99.0827 101.569 97.7144 102.715 96.2565 103.749L98.5714 107.011ZM73.3152 118.886C82.6491 117.029 91.3524 112.911 98.6787 106.93L96.1492 103.831C89.328 109.4 81.225 113.234 72.5349 114.962L73.3152 118.886ZM39.8044 115.585C50.4025 119.975 62.0643 121.124 73.3152 118.886L72.5349 114.962C62.0599 117.046 51.2023 115.977 41.3351 111.89L39.8044 115.585ZM13.7748 94.2231C20.1479 103.761 29.2062 111.195 39.8044 115.585L41.3351 111.89C31.4679 107.802 23.0342 100.881 17.1006 92.0008L13.7748 94.2231ZM4 62C4 73.4713 7.40164 84.6851 13.7748 94.2231L17.1006 92.0008C11.167 83.1206 8 72.6802 8 62L4 62ZM13.7748 29.777C7.40164 39.315 4 50.5287 4 62L8 62C8 51.3198 11.167 40.8795 17.1006 31.9992L13.7748 29.777ZM39.8044 8.41502C29.2062 12.8049 20.1479 20.2389 13.7748 29.777L17.1006 31.9992C23.0342 23.119 31.4679 16.1977 41.3351 12.1105L39.8044 8.41502ZM73.3152 5.11448C62.0643 2.87654 50.4025 4.02513 39.8044 8.41502L41.3351 12.1105C51.2023 8.0234 62.0599 6.95402 72.5349 9.03762L73.3152 5.11448ZM99.4927 17.7473C92.0007 11.3997 82.9972 7.04035 73.3152 5.11448L72.5349 9.03762C81.5491 10.8307 89.9316 14.8894 96.907 20.7992L99.4927 17.7473ZM96.6892 17.9625L96.6884 17.9635L99.7113 20.583L99.7122 20.582L96.6892 17.9625ZM99.6387 17.8715L99.5073 17.7581L96.8941 20.7865L97.0255 20.8999L99.6387 17.8715ZM99.978 18.1631C99.8623 18.0628 99.7462 17.9631 99.6297 17.8638L97.0345 20.9076C97.143 21.0001 97.2511 21.093 97.3588 21.1864L99.978 18.1631ZM100.084 21.0874L100.085 21.0868L97.2521 18.2627L97.2514 18.2633L100.084 21.0874ZM102.608 20.4338L99.9744 18.1612L97.3612 21.1895L99.9948 23.4621L102.608 20.4338ZM102.796 23.2769L102.816 23.2545L99.7872 20.6414L99.7678 20.6638L102.796 23.2769ZM103.127 20.9826C102.964 20.8065 102.793 20.6381 102.614 20.4783L99.9503 23.4625C100.034 23.5374 100.115 23.6164 100.191 23.6991L103.127 20.9826ZM103.012 18.1594L100.245 20.9266L103.073 23.755L105.841 20.9878L103.012 18.1594ZM100.187 18.3449C101.156 19.1923 102.098 20.0736 103.012 20.9878L105.841 18.1594C104.863 17.1822 103.856 16.2401 102.82 15.3342L100.187 18.3449ZM73.3152 5.11448C83.2981 7.1002 92.5596 11.673 100.187 18.3449L102.82 15.3342C94.6672 8.20218 84.767 3.31401 74.0956 1.19134L73.3152 5.11448ZM39.8044 8.41502C50.4025 4.02513 62.0643 2.87654 73.3152 5.11448L74.0956 1.19134C62.0688 -1.20094 49.6026 0.0268643 38.2736 4.7195L39.8044 8.41502ZM13.7748 29.777C20.1479 20.2389 29.2062 12.8049 39.8044 8.41502L38.2736 4.7195C26.9446 9.41213 17.2615 17.3588 10.4489 27.5547L13.7748 29.777ZM4 62C4 50.5287 7.40164 39.315 13.7748 29.777L10.4489 27.5547C3.63623 37.7505 0 49.7376 0 62H4ZM13.7748 94.2231C7.40164 84.6851 4 73.4713 4 62H0C0 74.2625 3.63624 86.2495 10.4489 96.4454L13.7748 94.2231ZM39.8044 115.585C29.2062 111.195 20.1479 103.761 13.7748 94.2231L10.4489 96.4454C17.2615 106.641 26.9446 114.588 38.2736 119.281L39.8044 115.585ZM73.3152 118.886C62.0643 121.124 50.4025 119.975 39.8044 115.585L38.2736 119.281C49.6026 123.973 62.0688 125.201 74.0956 122.809L73.3152 118.886ZM100.187 105.655C92.5596 112.327 83.2981 116.9 73.3152 118.886L74.0956 122.809C84.767 120.686 94.6672 115.798 102.82 108.666L100.187 105.655ZM103.012 103.012C102.098 103.926 101.156 104.808 100.187 105.655L102.82 108.666C103.856 107.76 104.863 106.818 105.841 105.841L103.012 103.012ZM95.0221 28.4336L92.162 25.9707L89.5519 29.0018L92.412 31.4646L95.0221 28.4336ZM92.2975 31.358C92.3729 31.4339 92.45 31.5084 92.5287 31.5812L95.2452 28.645C95.2083 28.6109 95.1721 28.576 95.1366 28.5402L92.2975 31.358ZM92.4727 28.6989L89.7437 31.4279L92.5721 34.2563L95.3011 31.5273L92.4727 28.6989ZM92.5587 31.4145C91.5479 30.4227 90.4906 29.4901 89.3909 28.6219L86.9122 31.7613C87.8972 32.539 88.8468 33.3764 89.7572 34.2697L92.5587 31.4145ZM89.5658 31.6058L92.2712 28.9004L89.4427 26.072L86.7374 28.7774L89.5658 31.6058Z" fill="black" mask="url(#path-9-outside-4_424_78)"/>
<mask id="path-11-outside-5_424_78" maskUnits="userSpaceOnUse" x="34.7776" y="80.4976" width="21" height="24" fill="black">
<rect fill="white" x="34.7776" y="80.4976" width="21" height="24"/>
<path fill-rule="evenodd" clip-rule="evenodd" d="M40.1824 96.9118L37.7776 99.9279L37.7807 99.9304C38.8604 100.791 40.1145 101.405 41.4557 101.731L41.4705 101.735C42.8186 102.06 44.2217 102.087 45.581 101.812C46.9404 101.537 48.2232 100.968 49.3393 100.145C50.4553 99.322 51.3776 98.2644 52.0414 97.0467C52.7051 95.829 53.0942 94.4808 53.1813 93.0967C53.2684 91.7126 53.0514 90.3262 52.5456 89.0349C52.0397 87.7436 51.2573 86.5787 50.2532 85.6221L50.2422 85.6116C49.2406 84.6603 48.0435 83.9388 46.7343 83.4976L45.4938 87.178L46.5163 87.9852C48.2121 88.922 49.3605 90.7282 49.3605 92.8027C49.3605 95.8402 46.8981 98.3027 43.8605 98.3027C42.5436 98.3027 41.3348 97.8399 40.3879 97.068L40.1824 96.9118Z"/>
</mask>
<path fill-rule="evenodd" clip-rule="evenodd" d="M40.1824 96.9118L37.7776 99.9279L37.7807 99.9304C38.8604 100.791 40.1145 101.405 41.4557 101.731L41.4705 101.735C42.8186 102.06 44.2217 102.087 45.581 101.812C46.9404 101.537 48.2232 100.968 49.3393 100.145C50.4553 99.322 51.3776 98.2644 52.0414 97.0467C52.7051 95.829 53.0942 94.4808 53.1813 93.0967C53.2684 91.7126 53.0514 90.3262 52.5456 89.0349C52.0397 87.7436 51.2573 86.5787 50.2532 85.6221L50.2422 85.6116C49.2406 84.6603 48.0435 83.9388 46.7343 83.4976L45.4938 87.178L46.5163 87.9852C48.2121 88.922 49.3605 90.7282 49.3605 92.8027C49.3605 95.8402 46.8981 98.3027 43.8605 98.3027C42.5436 98.3027 41.3348 97.8399 40.3879 97.068L40.1824 96.9118Z" fill="black"/>
<path d="M37.7776 99.9279L36.2138 98.6811L34.9665 100.245L36.5313 101.492L37.7776 99.9279ZM40.1824 96.9118L41.3923 95.3193L39.8366 94.1374L38.6186 95.665L40.1824 96.9118ZM37.7807 99.9304L36.5345 101.495L36.5346 101.495L37.7807 99.9304ZM41.4557 101.731L40.9832 103.674L40.9847 103.675L41.4557 101.731ZM41.4705 101.735L40.9996 103.678L41.0012 103.679L41.4705 101.735ZM49.3393 100.145L50.5265 101.755L50.5265 101.755L49.3393 100.145ZM52.5456 89.0349L54.4078 88.3054L54.4078 88.3054L52.5456 89.0349ZM50.2532 85.6221L51.6329 84.1741L51.6317 84.173L50.2532 85.6221ZM50.2422 85.6116L51.6206 84.1625L51.6195 84.1614L50.2422 85.6116ZM46.7343 83.4976L47.3731 81.6023L45.4779 80.9636L44.8391 82.8588L46.7343 83.4976ZM45.4938 87.178L43.5986 86.5392L43.1485 87.8746L44.2546 88.7478L45.4938 87.178ZM46.5163 87.9852L45.277 89.555L45.4057 89.6565L45.5491 89.7358L46.5163 87.9852ZM40.3879 97.068L41.6516 95.5178L41.625 95.4961L41.5978 95.4754L40.3879 97.068ZM39.3414 101.175L41.7462 98.1587L38.6186 95.665L36.2138 98.6811L39.3414 101.175ZM39.027 98.3662L39.0239 98.3637L36.5313 101.492L36.5345 101.495L39.027 98.3662ZM41.9282 99.7877C40.8694 99.5303 39.8793 99.0452 39.0269 98.3661L36.5346 101.495C37.8415 102.536 39.3596 103.28 40.9832 103.674L41.9282 99.7877ZM41.9415 99.7909L41.9267 99.7873L40.9847 103.675L40.9996 103.678L41.9415 99.7909ZM45.185 99.8515C44.1118 100.068 43.0042 100.047 41.9399 99.7905L41.0012 103.679C42.6331 104.073 44.3315 104.105 45.977 103.772L45.185 99.8515ZM48.1521 98.5357C47.271 99.1856 46.2582 99.6347 45.185 99.8515L45.977 103.772C47.6226 103.44 49.1754 102.751 50.5265 101.755L48.1521 98.5357ZM50.2853 96.0895C49.7613 97.0508 49.0332 97.8858 48.1521 98.5357L50.5265 101.755C51.8775 100.758 52.994 99.4779 53.7974 98.0039L50.2853 96.0895ZM51.1853 92.9711C51.1165 94.0638 50.8093 95.1282 50.2853 96.0895L53.7974 98.0039C54.6009 96.5299 55.0719 94.8978 55.1774 93.2223L51.1853 92.9711ZM50.6834 89.7644C51.0827 90.7838 51.254 91.8783 51.1853 92.9711L55.1774 93.2223C55.2828 91.5468 55.0201 89.8685 54.4078 88.3054L50.6834 89.7644ZM48.8736 87.0701C49.6663 87.8253 50.284 88.745 50.6834 89.7644L54.4078 88.3054C53.7955 86.7423 52.8483 85.3321 51.6329 84.1741L48.8736 87.0701ZM48.8638 87.0607L48.8748 87.0712L51.6317 84.173L51.6206 84.1625L48.8638 87.0607ZM46.0955 85.3928C47.1291 85.7412 48.0741 86.3107 48.8649 87.0618L51.6195 84.1614C50.407 83.0098 48.9579 82.1365 47.3731 81.6023L46.0955 85.3928ZM47.3891 87.8168L48.6296 84.1364L44.8391 82.8588L43.5986 86.5392L47.3891 87.8168ZM47.7555 86.4154L46.7331 85.6082L44.2546 88.7478L45.277 89.555L47.7555 86.4154ZM51.3605 92.8027C51.3605 89.9712 49.7907 87.5092 47.4834 86.2346L45.5491 89.7358C46.6335 90.3348 47.3605 91.4852 47.3605 92.8027H51.3605ZM43.8605 100.303C48.0027 100.303 51.3605 96.9448 51.3605 92.8027H47.3605C47.3605 94.7357 45.7935 96.3027 43.8605 96.3027V100.303ZM39.1243 98.6182C40.415 99.6703 42.0666 100.303 43.8605 100.303V96.3027C43.0207 96.3027 42.2547 96.0094 41.6516 95.5178L39.1243 98.6182ZM41.5978 95.4754L41.3923 95.3193L38.9725 98.5044L39.1781 98.6605L41.5978 95.4754Z" fill="black" mask="url(#path-11-outside-5_424_78)"/>
<mask id="path-13-outside-6_424_78" maskUnits="userSpaceOnUse" x="15" y="15" width="82" height="88" fill="black">
<rect fill="white" x="15" y="15" width="82" height="88"/>
<path fill-rule="evenodd" clip-rule="evenodd" d="M46.0017 85.671L45.4938 87.178L43.6741 85.7414L44.3932 84.4959C44.9175 84.9019 45.4539 85.2938 46.0017 85.671ZM40.1823 96.9118L37.7793 99.9257C37.2193 99.5681 36.6677 99.1983 36.125 98.8169C32.0105 95.9252 28.4019 92.3586 25.4562 88.2594C21.7299 83.0737 19.15 77.1543 17.8878 70.8946C16.6256 64.6349 16.7101 58.1783 18.1357 51.9537C19.5613 45.7292 22.2954 39.8794 26.1562 34.793C30.0169 29.7067 34.916 25.5002 40.5279 22.4532C46.1397 19.4063 52.3358 17.5885 58.7043 17.1209C65.0728 16.6532 71.4679 17.5463 77.4647 19.7408C82.2051 21.4755 86.6107 23.9921 90.5023 27.1773C91.5337 28.0215 92.529 28.9127 93.4848 29.8487L90.9245 32.4633C89.0862 30.769 87.0615 29.264 84.8833 27.9801C82.151 26.1422 79.1996 24.6351 76.09 23.4971C70.6263 21.4977 64.7997 20.684 58.9972 21.1101C53.1948 21.5362 47.5495 23.1924 42.4365 25.9685C37.3235 28.7446 32.8599 32.5772 29.3423 37.2114C25.8247 41.8457 23.3337 47.1755 22.0348 52.8467C20.7359 58.518 20.6589 64.4007 21.8089 70.104C22.9589 75.8072 25.3095 81.2004 28.7046 85.9252C31.1764 89.3651 34.1606 92.3933 37.5454 94.9086L40.1823 96.9118Z"/>
</mask>
<path fill-rule="evenodd" clip-rule="evenodd" d="M46.0017 85.671L45.4938 87.178L43.6741 85.7414L44.3932 84.4959C44.9175 84.9019 45.4539 85.2938 46.0017 85.671ZM40.1823 96.9118L37.7793 99.9257C37.2193 99.5681 36.6677 99.1983 36.125 98.8169C32.0105 95.9252 28.4019 92.3586 25.4562 88.2594C21.7299 83.0737 19.15 77.1543 17.8878 70.8946C16.6256 64.6349 16.7101 58.1783 18.1357 51.9537C19.5613 45.7292 22.2954 39.8794 26.1562 34.793C30.0169 29.7067 34.916 25.5002 40.5279 22.4532C46.1397 19.4063 52.3358 17.5885 58.7043 17.1209C65.0728 16.6532 71.4679 17.5463 77.4647 19.7408C82.2051 21.4755 86.6107 23.9921 90.5023 27.1773C91.5337 28.0215 92.529 28.9127 93.4848 29.8487L90.9245 32.4633C89.0862 30.769 87.0615 29.264 84.8833 27.9801C82.151 26.1422 79.1996 24.6351 76.09 23.4971C70.6263 21.4977 64.7997 20.684 58.9972 21.1101C53.1948 21.5362 47.5495 23.1924 42.4365 25.9685C37.3235 28.7446 32.8599 32.5772 29.3423 37.2114C25.8247 41.8457 23.3337 47.1755 22.0348 52.8467C20.7359 58.518 20.6589 64.4007 21.8089 70.104C22.9589 75.8072 25.3095 81.2004 28.7046 85.9252C31.1764 89.3651 34.1606 92.3933 37.5454 94.9086L40.1823 96.9118Z" fill="black"/>
<path d="M45.4938 87.178L44.2545 88.7478L46.4824 90.5066L47.389 87.8168L45.4938 87.178ZM46.0017 85.671L47.897 86.3097L48.379 84.8795L47.1359 84.0236L46.0017 85.671ZM43.6741 85.7414L41.942 84.7414L41.0772 86.2394L42.4348 87.3112L43.6741 85.7414ZM44.3932 84.4959L45.6178 82.9146L43.8066 81.5119L42.6612 83.4959L44.3932 84.4959ZM37.7793 99.9257L36.7028 101.611L38.2205 102.581L39.3431 101.173L37.7793 99.9257ZM40.1823 96.9118L41.7461 98.1587L43.0225 96.5578L41.3922 95.3193L40.1823 96.9118ZM36.125 98.8169L37.275 97.1806L37.275 97.1806L36.125 98.8169ZM25.4562 88.2594L27.0804 87.0923L27.0804 87.0923L25.4562 88.2594ZM17.8878 70.8946L19.8483 70.4993L19.8483 70.4993L17.8878 70.8946ZM18.1357 51.9537L20.0853 52.4002L20.0853 52.4002L18.1357 51.9537ZM26.1562 34.793L27.7492 36.0022L27.7492 36.0022L26.1562 34.793ZM40.5279 22.4532L39.5735 20.6956L39.5735 20.6956L40.5279 22.4532ZM58.7043 17.1209L58.5578 15.1262L58.5578 15.1262L58.7043 17.1209ZM77.4647 19.7408L78.152 17.8626L78.152 17.8626L77.4647 19.7408ZM90.5023 27.1773L91.7691 25.6297L91.7691 25.6297L90.5023 27.1773ZM93.4848 29.8487L94.9138 31.2481L96.3131 29.8191L94.8842 28.4198L93.4848 29.8487ZM90.9245 32.4633L89.569 33.934L90.9958 35.249L92.3534 33.8626L90.9245 32.4633ZM84.8833 27.9801L83.7671 29.6396L83.8165 29.6729L83.8678 29.7031L84.8833 27.9801ZM76.09 23.4971L76.7774 21.619L76.7774 21.619L76.09 23.4971ZM58.9972 21.1101L59.1437 23.1047L59.1437 23.1047L58.9972 21.1101ZM42.4365 25.9685L41.4822 24.2109L41.4822 24.2109L42.4365 25.9685ZM29.3423 37.2114L30.9353 38.4206L30.9353 38.4206L29.3423 37.2114ZM22.0348 52.8467L23.9843 53.2932L23.9843 53.2932L22.0348 52.8467ZM28.7046 85.9252L30.3287 84.7581L30.3287 84.7581L28.7046 85.9252ZM37.5454 94.9086L38.7553 93.316L38.7468 93.3096L38.7383 93.3033L37.5454 94.9086ZM47.389 87.8168L47.897 86.3097L44.1065 85.0322L43.5985 86.5392L47.389 87.8168ZM42.4348 87.3112L44.2545 88.7478L46.7331 85.6082L44.9134 84.1716L42.4348 87.3112ZM42.6612 83.4959L41.942 84.7414L45.4061 86.7414L46.1253 85.4959L42.6612 83.4959ZM47.1359 84.0236C46.6188 83.6676 46.1126 83.2978 45.6178 82.9146L43.1686 86.0771C43.7224 86.506 44.289 86.9199 44.8676 87.3183L47.1359 84.0236ZM39.3431 101.173L41.7461 98.1587L38.6186 95.665L36.2155 98.6789L39.3431 101.173ZM34.9749 100.453C35.5418 100.852 36.1179 101.238 36.7028 101.611L38.8558 98.2401C38.3207 97.8984 37.7936 97.5451 37.275 97.1806L34.9749 100.453ZM23.8321 89.4264C26.9086 93.7079 30.6776 97.433 34.975 100.453L37.275 97.1806C33.3434 94.4174 29.8951 91.0094 27.0804 87.0923L23.8321 89.4264ZM15.9273 71.2899C17.2455 77.8278 19.9402 84.0103 23.8321 89.4264L27.0804 87.0923C23.5197 82.137 21.0544 76.4808 19.8483 70.4993L15.9273 71.2899ZM16.1862 51.5072C14.6973 58.0084 14.609 64.752 15.9273 71.2899L19.8483 70.4993C18.6423 64.5178 18.723 58.3481 20.0853 52.4002L16.1862 51.5072ZM24.5631 33.5838C20.5307 38.8963 17.6752 45.0061 16.1862 51.5072L20.0853 52.4002C21.4475 46.4524 24.06 40.8626 27.7492 36.0022L24.5631 33.5838ZM39.5735 20.6956C33.7123 23.878 28.5955 28.2714 24.5631 33.5838L27.7492 36.0022C31.4384 31.1419 36.1198 27.1224 41.4822 24.2109L39.5735 20.6956ZM58.5578 15.1262C51.9062 15.6147 45.4348 17.5132 39.5735 20.6956L41.4822 24.2109C46.8446 21.2993 52.7653 19.5624 58.8508 19.1155L58.5578 15.1262ZM78.152 17.8626C71.8887 15.5705 65.2094 14.6378 58.5578 15.1262L58.8508 19.1155C64.9362 18.6686 71.0471 19.522 76.7774 21.619L78.152 17.8626ZM91.7691 25.6297C87.7045 22.3028 83.1031 19.6744 78.152 17.8626L76.7774 21.619C81.3071 23.2766 85.5169 25.6813 89.2356 28.725L91.7691 25.6297ZM94.8842 28.4198C93.8859 27.4422 92.8463 26.5114 91.7691 25.6297L89.2356 28.725C90.2211 29.5317 91.1722 30.3832 92.0855 31.2777L94.8842 28.4198ZM92.3534 33.8626L94.9138 31.2481L92.0559 28.4494L89.4955 31.064L92.3534 33.8626ZM83.8678 29.7031C85.924 30.9151 87.8348 32.3356 89.569 33.934L92.2799 30.9927C90.3376 29.2025 88.199 27.6128 85.8989 26.2571L83.8678 29.7031ZM75.4027 25.3753C78.3606 26.4577 81.168 27.8914 83.7671 29.6396L85.9996 26.3206C83.1339 24.393 80.0386 22.8124 76.7774 21.619L75.4027 25.3753ZM59.1437 23.1047C64.6631 22.6994 70.2055 23.4734 75.4027 25.3753L76.7774 21.619C71.0471 19.522 64.9362 18.6686 58.8508 19.1155L59.1437 23.1047ZM43.3908 27.7261C48.2544 25.0854 53.6243 23.5101 59.1437 23.1047L58.8508 19.1155C52.7653 19.5624 46.8446 21.2993 41.4822 24.2109L43.3908 27.7261ZM30.9353 38.4206C34.2813 34.0124 38.5272 30.3669 43.3908 27.7261L41.4822 24.2109C36.1198 27.1224 31.4384 31.1419 27.7492 36.0022L30.9353 38.4206ZM23.9843 53.2932C25.2198 47.8987 27.5893 42.8288 30.9353 38.4206L27.7492 36.0022C24.06 40.8626 21.4475 46.4524 20.0853 52.4002L23.9843 53.2932ZM23.7694 69.7086C22.6755 64.2836 22.7488 58.6878 23.9843 53.2932L20.0853 52.4002C18.723 58.3481 18.6423 64.5178 19.8483 70.4993L23.7694 69.7086ZM30.3287 84.7581C27.0993 80.2638 24.8633 75.1337 23.7694 69.7086L19.8483 70.4993C21.0544 76.4808 23.5197 82.137 27.0804 87.0923L30.3287 84.7581ZM38.7383 93.3033C35.5186 90.9107 32.68 88.0302 30.3287 84.7581L27.0804 87.0923C29.6728 90.7 32.8026 93.8759 36.3525 96.5139L38.7383 93.3033ZM41.3922 95.3193L38.7553 93.316L36.3356 96.5011L38.9725 98.5044L41.3922 95.3193Z" fill="black" mask="url(#path-13-outside-6_424_78)"/>
<circle cx="70" cy="101" r="9" fill="#E47777"/>
<circle cx="92" cy="92" r="9" fill="#97CFA3"/>
<circle cx="101" cy="48" r="9" fill="#EDBA7D"/>
<circle cx="103" cy="71" r="9" fill="#7B95D8"/>
</mask>
<g mask="url(#mask0_424_78)">
<circle cx="62" cy="62" r="62" fill="url(#paint0_linear_424_78)"/>
</g>
<defs>
<linearGradient id="paint0_linear_424_78" x1="62" y1="0" x2="62" y2="124" gradientUnits="userSpaceOnUse">
<stop offset="0.229167" stop-color="#F7B161"/>
<stop offset="1" stop-color="#EB366E"/>
</linearGradient>
</defs>
</svg>
