<svg width="111" height="122" viewBox="0 0 111 122" fill="none" xmlns="http://www.w3.org/2000/svg">
<mask id="mask0_424_160" style="mask-type:alpha" maskUnits="userSpaceOnUse" x="0" y="0" width="111" height="122">
<path d="M69.1317 68.4246L68.7782 68.0711L68.4246 68.4246C66.5569 70.2923 63.9905 71.4589 61.151 71.4989L61.1508 71.4989C61.0515 71.5004 60.9522 71.5004 60.8529 71.499L60.8528 71.499C55.1217 71.4203 50.5 66.7498 50.5 61C50.5 55.201 55.201 50.5 61 50.5C63.8522 50.5 66.438 51.6366 68.3307 53.4826L68.6887 53.8318L69.0378 53.4738L71.8304 50.61L72.1795 50.2521L71.8216 49.903L71.8208 49.9022L71.8207 49.9022C70.8155 48.9221 69.6875 48.0885 68.4705 47.4191C67.0376 46.6309 65.4812 46.0701 63.8566 45.7655C60.8516 45.2021 57.7471 45.5399 54.9337 46.7364C52.1203 47.933 49.7235 49.9348 48.045 52.4902C46.3664 55.0455 45.4811 58.0401 45.5003 61.0974C45.5195 64.1547 46.4424 67.138 48.1529 69.672C49.8635 72.206 52.2852 74.1776 55.1134 75.3387C57.9417 76.4998 61.0501 76.7986 64.0478 76.1974C65.6685 75.8724 67.2177 75.2921 68.6406 74.486C69.8481 73.8019 70.9647 72.955 71.9569 71.9635L71.957 71.9633L71.9602 71.9602L72.3137 71.6066L71.9602 71.2531L69.1317 68.4246L69.1317 68.4246Z" fill="black" stroke="black"/>
<path d="M71.1109 78.482L71.4645 78.1284L71.818 78.482C72.6329 79.2969 73.7572 79.8 75 79.8C77.4853 79.8 79.5 77.7853 79.5 75.3C79.5 74.0948 79.0269 73.0012 78.2552 72.193L78.2552 72.193C78.2082 72.1437 78.1601 72.0955 78.1109 72.0485L78.1108 72.0484C77.3023 71.2746 76.2071 70.8 75 70.8C73.7775 70.8 72.6697 71.2868 71.8583 72.0782L71.5003 72.4274L71.1512 72.0694L68.3585 69.2056L68.0095 68.8477L68.3674 68.4986C69.4201 67.4721 70.6924 66.7078 72.0813 66.2594C72.4626 66.1364 72.8526 66.0371 73.2492 65.9627C75.0909 65.6174 76.9937 65.8244 78.7181 66.5578C80.4424 67.2912 81.9114 68.5181 82.9402 70.0843C83.969 71.6504 84.5116 73.4859 84.4998 75.3597C84.488 77.2335 83.9224 79.062 82.874 80.6151C81.8256 82.1682 80.3413 83.3766 78.6079 84.0882C76.8745 84.7999 74.9693 84.983 73.132 84.6145C72.7363 84.5352 72.3476 84.431 71.968 84.3032C70.5848 83.8373 69.3221 83.0572 68.2825 82.0175L67.9289 81.664L68.2825 81.3104L71.1109 78.482Z" fill="black" stroke="black"/>
<mask id="path-3-outside-1_424_160" maskUnits="userSpaceOnUse" x="30" y="30" width="54" height="59" fill="black">
<rect fill="white" x="30" y="30" width="54" height="59"/>
<path fill-rule="evenodd" clip-rule="evenodd" d="M47.8969 83.6952L46 86.9808L45.9967 86.9789C44.8365 86.3088 43.7253 85.5635 42.6698 84.7488C40.3726 82.9757 38.3391 80.8743 36.6375 78.5062C34.1533 75.0491 32.4333 71.1028 31.5919 66.9297C30.7504 62.7566 30.8068 58.4522 31.7572 54.3025C32.7076 50.1528 34.5303 46.2529 37.1041 42.862C39.678 39.4711 42.944 36.6668 46.6852 34.6355C50.4265 32.6042 54.5572 31.3924 58.8029 31.0806C63.0485 30.7688 67.312 31.3642 71.3098 32.8272C74.0482 33.8293 76.6191 35.2228 78.9446 36.9585C80.0141 37.7568 81.0317 38.6275 81.9899 39.5658L79.3314 42.2806L79.3118 42.2664C78.7019 41.6072 77.9521 41.0628 77.1053 40.673L76.052 39.9124L76.1168 39.8462C75.5588 39.4475 74.9853 39.071 74.3978 38.7177L73.0311 37.7308L72.9154 37.891C71.9525 37.3946 70.9573 36.9576 69.9352 36.5836C66.4704 35.3156 62.7754 34.7996 59.0958 35.0698C55.4162 35.34 51.8363 36.3903 48.5939 38.1508C45.3515 39.9112 42.5209 42.3416 40.2902 45.2804C38.0596 48.2192 36.4799 51.5991 35.6562 55.1955C34.8325 58.7919 34.7837 62.5224 35.5129 66.1391C36.2422 69.7558 37.7329 73.1759 39.8858 76.1721C39.9598 76.275 40.0345 76.3774 40.11 76.4792C41.8465 79.1625 44.23 81.4256 47.0534 83.0712L47.8969 83.6952Z"/>
</mask>
<path fill-rule="evenodd" clip-rule="evenodd" d="M47.8969 83.6952L46 86.9808L45.9967 86.9789C44.8365 86.3088 43.7253 85.5635 42.6698 84.7488C40.3726 82.9757 38.3391 80.8743 36.6375 78.5062C34.1533 75.0491 32.4333 71.1028 31.5919 66.9297C30.7504 62.7566 30.8068 58.4522 31.7572 54.3025C32.7076 50.1528 34.5303 46.2529 37.1041 42.862C39.678 39.4711 42.944 36.6668 46.6852 34.6355C50.4265 32.6042 54.5572 31.3924 58.8029 31.0806C63.0485 30.7688 67.312 31.3642 71.3098 32.8272C74.0482 33.8293 76.6191 35.2228 78.9446 36.9585C80.0141 37.7568 81.0317 38.6275 81.9899 39.5658L79.3314 42.2806L79.3118 42.2664C78.7019 41.6072 77.9521 41.0628 77.1053 40.673L76.052 39.9124L76.1168 39.8462C75.5588 39.4475 74.9853 39.071 74.3978 38.7177L73.0311 37.7308L72.9154 37.891C71.9525 37.3946 70.9573 36.9576 69.9352 36.5836C66.4704 35.3156 62.7754 34.7996 59.0958 35.0698C55.4162 35.34 51.8363 36.3903 48.5939 38.1508C45.3515 39.9112 42.5209 42.3416 40.2902 45.2804C38.0596 48.2192 36.4799 51.5991 35.6562 55.1955C34.8325 58.7919 34.7837 62.5224 35.5129 66.1391C36.2422 69.7558 37.7329 73.1759 39.8858 76.1721C39.9598 76.275 40.0345 76.3774 40.11 76.4792C41.8465 79.1625 44.23 81.4256 47.0534 83.0712L47.8969 83.6952Z" fill="black"/>
<path d="M46 86.9808L45.4996 87.8466L46.3658 88.3472L46.866 87.4808L46 86.9808ZM47.8969 83.6952L48.7629 84.1952L49.2093 83.4222L48.4916 82.8913L47.8969 83.6952ZM45.9967 86.9789L46.4971 86.1131L46.4968 86.1129L45.9967 86.9789ZM42.6698 84.7488L42.0588 85.5404L42.0588 85.5404L42.6698 84.7488ZM36.6375 78.5062L37.4496 77.9227L37.4496 77.9227L36.6375 78.5062ZM31.5919 66.9297L30.6116 67.1274L30.6116 67.1274L31.5919 66.9297ZM31.7572 54.3025L32.7319 54.5257L32.7319 54.5257L31.7572 54.3025ZM37.1041 42.862L37.9006 43.4666L37.9006 43.4666L37.1041 42.862ZM46.6852 34.6355L47.1624 35.5143L47.1624 35.5143L46.6852 34.6355ZM58.8029 31.0806L58.7296 30.0833L58.7296 30.0833L58.8029 31.0806ZM71.3098 32.8272L71.6535 31.8881L71.6535 31.8881L71.3098 32.8272ZM78.9446 36.9585L78.3464 37.7599L78.3464 37.7599L78.9446 36.9585ZM81.9899 39.5658L82.7044 40.2655L83.404 39.551L82.6896 38.8513L81.9899 39.5658ZM79.3314 42.2806L78.746 43.0913L79.4437 43.5952L80.0459 42.9802L79.3314 42.2806ZM79.3118 42.2664L78.5777 42.9455L78.6455 43.0187L78.7263 43.0771L79.3118 42.2664ZM77.1053 40.673L76.5198 41.4837L76.5987 41.5406L76.6871 41.5813L77.1053 40.673ZM76.052 39.9124L75.3375 39.2127L74.5246 40.0428L75.4666 40.7231L76.052 39.9124ZM76.1168 39.8462L76.8313 40.5459L77.6483 39.7116L76.6982 39.0326L76.1168 39.8462ZM74.3978 38.7177L73.8123 39.5284L73.8464 39.5531L73.8825 39.5747L74.3978 38.7177ZM73.0311 37.7308L73.6166 36.9201L72.8058 36.3346L72.2204 37.1453L73.0311 37.7308ZM72.9154 37.891L72.4571 38.7798L73.2221 39.1743L73.7261 38.4765L72.9154 37.891ZM69.9352 36.5836L70.2788 35.6445L70.2788 35.6445L69.9352 36.5836ZM59.0958 35.0698L59.0226 34.0725L59.0226 34.0725L59.0958 35.0698ZM48.5939 38.1508L48.1167 37.2719L48.1167 37.2719L48.5939 38.1508ZM40.2902 45.2804L39.4937 44.6758L39.4937 44.6758L40.2902 45.2804ZM35.6562 55.1955L34.6814 54.9722L34.6814 54.9722L35.6562 55.1955ZM35.5129 66.1391L34.5327 66.3368L34.5327 66.3368L35.5129 66.1391ZM39.8858 76.1721L39.0737 76.7556L39.0737 76.7556L39.8858 76.1721ZM40.11 76.4792L40.9495 75.9359L40.9323 75.9093L40.9134 75.8838L40.11 76.4792ZM47.0534 83.0712L47.6481 82.2673L47.6042 82.2348L47.5569 82.2073L47.0534 83.0712ZM46.866 87.4808L48.7629 84.1952L47.0309 83.1952L45.134 86.4808L46.866 87.4808ZM45.4964 87.8447L45.4996 87.8466L46.5004 86.115L46.4971 86.1131L45.4964 87.8447ZM42.0588 85.5404C43.1495 86.3822 44.2977 87.1525 45.4966 87.8448L46.4968 86.1129C45.3753 85.4652 44.3011 84.7447 43.2808 83.9572L42.0588 85.5404ZM35.8254 79.0898C37.5838 81.5368 39.685 83.7082 42.0588 85.5404L43.2808 83.9572C41.0602 82.2432 39.0945 80.2118 37.4496 77.9227L35.8254 79.0898ZM30.6116 67.1274C31.4811 71.4396 33.2584 75.5174 35.8254 79.0898L37.4496 77.9227C35.0482 74.5808 33.3855 70.7661 32.5721 66.7321L30.6116 67.1274ZM30.7824 54.0792C29.8003 58.3672 29.7421 62.8151 30.6116 67.1274L32.5721 66.7321C31.7587 62.698 31.8132 58.5371 32.7319 54.5257L30.7824 54.0792ZM36.3076 42.2574C33.6479 45.7614 31.7645 49.7913 30.7824 54.0792L32.7319 54.5257C33.6506 50.5144 35.4126 46.7445 37.9006 43.4666L36.3076 42.2574ZM46.2081 33.7567C42.3421 35.8557 38.9672 38.7535 36.3076 42.2574L37.9006 43.4666C40.3887 40.1887 43.5459 37.4779 47.1624 35.5143L46.2081 33.7567ZM58.7296 30.0833C54.3424 30.4054 50.074 31.6576 46.2081 33.7567L47.1624 35.5143C50.7789 33.5507 54.7719 32.3793 58.8761 32.0779L58.7296 30.0833ZM71.6535 31.8881C67.5224 30.3763 63.1168 29.7611 58.7296 30.0833L58.8761 32.0779C62.9803 31.7765 67.1016 32.352 70.9661 33.7663L71.6535 31.8881ZM79.5428 36.1572C77.1397 34.3635 74.4832 32.9236 71.6535 31.8881L70.9661 33.7663C73.6133 34.735 76.0984 36.082 78.3464 37.7599L79.5428 36.1572ZM82.6896 38.8513C81.6995 37.8818 80.6479 36.9821 79.5428 36.1572L78.3464 37.7599C79.3803 38.5316 80.364 39.3733 81.2902 40.2803L82.6896 38.8513ZM80.0459 42.9802L82.7044 40.2655L81.2754 38.8662L78.6169 41.5809L80.0459 42.9802ZM78.7263 43.0771L78.746 43.0913L79.9169 41.4699L79.8972 41.4557L78.7263 43.0771ZM76.6871 41.5813C77.4168 41.9173 78.0587 42.3845 78.5777 42.9455L80.0458 41.5873C79.3451 40.8299 78.4875 40.2084 77.5234 39.7646L76.6871 41.5813ZM75.4666 40.7231L76.5198 41.4837L77.6907 39.8622L76.6375 39.1016L75.4666 40.7231ZM75.4023 39.1465L75.3375 39.2127L76.7665 40.612L76.8313 40.5459L75.4023 39.1465ZM73.8825 39.5747C74.4474 39.9144 74.9988 40.2764 75.5354 40.6598L76.6982 39.0326C76.1187 38.6185 75.5232 38.2276 74.9131 37.8607L73.8825 39.5747ZM72.4456 38.5415L73.8123 39.5284L74.9832 37.907L73.6166 36.9201L72.4456 38.5415ZM73.7261 38.4765L73.8418 38.3162L72.2204 37.1453L72.1047 37.3056L73.7261 38.4765ZM69.5915 37.5226C70.5743 37.8823 71.5312 38.3025 72.4571 38.7798L73.3737 37.0022C72.3737 36.4867 71.3403 36.0329 70.2788 35.6445L69.5915 37.5226ZM59.169 36.0671C62.7071 35.8073 66.26 36.3035 69.5915 37.5226L70.2788 35.6445C66.6808 34.3278 62.8437 33.7919 59.0226 34.0725L59.169 36.0671ZM49.071 39.0296C52.1887 37.3368 55.631 36.327 59.169 36.0671L59.0226 34.0725C55.2015 34.3531 51.4838 35.4438 48.1167 37.2719L49.071 39.0296ZM41.0868 45.885C43.2316 43.0593 45.9533 40.7223 49.071 39.0296L48.1167 37.2719C44.7496 39.1001 41.8102 41.624 39.4937 44.6758L41.0868 45.885ZM36.631 55.4187C37.423 51.9607 38.9419 48.7108 41.0868 45.885L39.4937 44.6758C37.1772 47.7277 35.5368 51.2375 34.6814 54.9722L36.631 55.4187ZM36.4932 65.9414C35.792 62.4638 35.839 58.8768 36.631 55.4187L34.6814 54.9722C33.8261 58.707 33.7754 62.5809 34.5327 66.3368L36.4932 65.9414ZM40.6979 75.5885C38.6277 72.7076 37.1944 69.419 36.4932 65.9414L34.5327 66.3368C35.29 70.0926 36.838 73.6442 39.0737 76.7556L40.6979 75.5885ZM40.9134 75.8838C40.8409 75.786 40.7691 75.6875 40.6979 75.5885L39.0737 76.7556C39.1506 76.8625 39.2282 76.9689 39.3065 77.0746L40.9134 75.8838ZM47.5569 82.2073C44.8661 80.6389 42.5988 78.4844 40.9495 75.9359L39.2704 77.0225C41.0942 79.8406 43.594 82.2123 46.5498 83.9352L47.5569 82.2073ZM48.4916 82.8913L47.6481 82.2673L46.4587 83.8752L47.3022 84.4992L48.4916 82.8913Z" fill="black" mask="url(#path-3-outside-1_424_160)"/>
<mask id="path-5-outside-2_424_160" maskUnits="userSpaceOnUse" x="65" y="36" width="21" height="21" fill="black">
<rect fill="white" x="65" y="36" width="21" height="21"/>
<path fill-rule="evenodd" clip-rule="evenodd" d="M81 46C81 44.6478 80.59 43.4001 79.8982 42.3967L80.277 41.9303L75.4478 38.0086V37C76.8406 37 78.2129 37.3029 79.4698 37.8832C79.7398 38.0078 80.0046 38.1453 80.2631 38.2954C81.7245 39.1437 82.9331 40.3629 83.7652 41.8283C84.5973 43.2936 85.0231 44.9525 84.999 46.6352C84.975 48.3179 84.5018 49.9641 83.6281 51.4053C82.7544 52.8464 81.5114 54.031 80.0263 54.8376C78.5412 55.6442 76.8673 56.044 75.1759 55.9962C73.4844 55.9483 71.8361 55.4544 70.3996 54.565C70.1455 54.4077 69.8997 54.239 69.6627 54.0597C68.5608 53.2256 67.6514 52.1609 67.0013 50.9369L67 50.9344L70.0978 49.3083L72.6663 51.2083L72.6986 51.1645C73.1052 51.4275 73.5454 51.635 74.0106 51.7774L73.9683 51.7996C74.3975 51.918 74.8413 51.9851 75.2904 51.9978C75.3518 51.9995 75.4131 52.0002 75.4745 51.9999L75.5 52C75.9004 52 76.2907 51.9533 76.6668 51.8647C77.1646 51.7528 77.6467 51.5725 78.0985 51.327C78.9583 50.86 79.6779 50.1743 80.1838 49.3399C80.6896 48.5055 80.9635 47.5525 80.9774 46.5783L80.9778 46.5423C80.9925 46.3637 81 46.1828 81 46Z"/>
</mask>
<path fill-rule="evenodd" clip-rule="evenodd" d="M81 46C81 44.6478 80.59 43.4001 79.8982 42.3967L80.277 41.9303L75.4478 38.0086V37C76.8406 37 78.2129 37.3029 79.4698 37.8832C79.7398 38.0078 80.0046 38.1453 80.2631 38.2954C81.7245 39.1437 82.9331 40.3629 83.7652 41.8283C84.5973 43.2936 85.0231 44.9525 84.999 46.6352C84.975 48.3179 84.5018 49.9641 83.6281 51.4053C82.7544 52.8464 81.5114 54.031 80.0263 54.8376C78.5412 55.6442 76.8673 56.044 75.1759 55.9962C73.4844 55.9483 71.8361 55.4544 70.3996 54.565C70.1455 54.4077 69.8997 54.239 69.6627 54.0597C68.5608 53.2256 67.6514 52.1609 67.0013 50.9369L67 50.9344L70.0978 49.3083L72.6663 51.2083L72.6986 51.1645C73.1052 51.4275 73.5454 51.635 74.0106 51.7774L73.9683 51.7996C74.3975 51.918 74.8413 51.9851 75.2904 51.9978C75.3518 51.9995 75.4131 52.0002 75.4745 51.9999L75.5 52C75.9004 52 76.2907 51.9533 76.6668 51.8647C77.1646 51.7528 77.6467 51.5725 78.0985 51.327C78.9583 50.86 79.6779 50.1743 80.1838 49.3399C80.6896 48.5055 80.9635 47.5525 80.9774 46.5783L80.9778 46.5423C80.9925 46.3637 81 46.1828 81 46Z" fill="black"/>
<path d="M79.8982 42.3967L79.1219 41.7664L78.6497 42.3478L79.0749 42.9644L79.8982 42.3967ZM80.277 41.9303L81.0532 42.5607L81.6836 41.7844L80.9074 41.154L80.277 41.9303ZM75.4478 38.0086H74.4478V38.4848L74.8174 38.7849L75.4478 38.0086ZM75.4478 37V36H74.4478V37H75.4478ZM79.4698 37.8832L79.8889 36.9752L79.8889 36.9752L79.4698 37.8832ZM80.2631 38.2954L79.761 39.1602L79.761 39.1602L80.2631 38.2954ZM83.7652 41.8283L82.8956 42.3221L82.8956 42.3221L83.7652 41.8283ZM84.999 46.6352L85.9989 46.6495L85.9989 46.6495L84.999 46.6352ZM83.6281 51.4053L82.773 50.8868L82.773 50.8868L83.6281 51.4053ZM80.0263 54.8376L79.549 53.9588L79.549 53.9588L80.0263 54.8376ZM75.1759 55.9962L75.2042 54.9966L75.2042 54.9966L75.1759 55.9962ZM70.3996 54.565L69.8732 55.4152L69.8732 55.4152L70.3996 54.565ZM69.6627 54.0597L70.2662 53.2623L70.2662 53.2623L69.6627 54.0597ZM67.0013 50.9369L66.1181 51.4058L66.1182 51.406L67.0013 50.9369ZM67 50.9344L66.5352 50.049L65.6456 50.5159L66.1168 51.4033L67 50.9344ZM70.0978 49.3083L70.6925 48.5044L70.1884 48.1314L69.6331 48.4229L70.0978 49.3083ZM72.6663 51.2083L72.0715 52.0122L72.8755 52.6069L73.4702 51.803L72.6663 51.2083ZM72.6986 51.1645L73.2418 50.3249L72.4533 49.8147L71.8947 50.5698L72.6986 51.1645ZM74.0106 51.7774L74.4753 52.6628L76.6278 51.5329L74.3033 50.8212L74.0106 51.7774ZM73.9683 51.7996L73.5036 50.9141L71.2633 52.0901L73.7022 52.7635L73.9683 51.7996ZM75.2904 51.9978L75.2621 52.9974L75.2621 52.9974L75.2904 51.9978ZM75.4745 51.9999L75.4769 50.9999L75.4697 50.9999L75.4745 51.9999ZM75.5 52L75.4975 53H75.5V52ZM76.6668 51.8647L76.4475 50.889L76.4374 50.8914L76.6668 51.8647ZM78.0985 51.327L78.5758 52.2058L78.5758 52.2058L78.0985 51.327ZM80.1838 49.3399L81.0389 49.8583L81.0389 49.8583L80.1838 49.3399ZM80.9774 46.5783L81.9773 46.5926L81.9774 46.5893L80.9774 46.5783ZM80.9778 46.5423L79.9812 46.4605L79.9783 46.4958L79.9779 46.5313L80.9778 46.5423ZM79.0749 42.9644C79.6518 43.8012 80 44.851 80 46H82C82 44.4446 81.5281 42.999 80.7214 41.8291L79.0749 42.9644ZM79.5007 41.2999L79.1219 41.7664L80.6744 43.0271L81.0532 42.5607L79.5007 41.2999ZM74.8174 38.7849L79.6466 42.7066L80.9074 41.154L76.0781 37.2324L74.8174 38.7849ZM74.4478 37V38.0086H76.4478V37H74.4478ZM79.8889 36.9752C78.5008 36.3344 76.9856 36 75.4478 36V38C76.6956 38 77.9249 38.2714 79.0506 38.7911L79.8889 36.9752ZM80.7651 37.4305C80.4796 37.2648 80.1872 37.1129 79.8889 36.9752L79.0506 38.7911C79.2925 38.9027 79.5296 39.0259 79.761 39.1602L80.7651 37.4305ZM84.6348 41.3345C83.7149 39.7146 82.3793 38.3676 80.7651 37.4305L79.761 39.1602C81.0697 39.9199 82.1512 41.0112 82.8956 42.3221L84.6348 41.3345ZM85.9989 46.6495C86.0256 44.7886 85.5546 42.9543 84.6348 41.3345L82.8956 42.3221C83.64 43.6329 84.0207 45.1164 83.9991 46.6209L85.9989 46.6495ZM84.4832 51.9237C85.4491 50.3306 85.9723 48.5104 85.9989 46.6495L83.9991 46.6209C83.9776 48.1254 83.5546 49.5976 82.773 50.8868L84.4832 51.9237ZM80.5036 55.7163C82.1439 54.8254 83.5174 53.5168 84.4832 51.9237L82.773 50.8868C81.9914 52.1761 80.8789 53.2365 79.549 53.9588L80.5036 55.7163ZM75.1476 56.9958C77.015 57.0486 78.8634 56.6072 80.5036 55.7163L79.549 53.9588C78.2191 54.6812 76.7196 55.0395 75.2042 54.9966L75.1476 56.9958ZM69.8732 55.4152C71.4599 56.3976 73.2801 56.9429 75.1476 56.9958L75.2042 54.9966C73.6888 54.9536 72.2123 54.5111 70.926 53.7148L69.8732 55.4152ZM69.0592 54.857C69.321 55.0552 69.5926 55.2415 69.8732 55.4152L70.926 53.7148C70.6985 53.5739 70.4784 53.4229 70.2662 53.2623L69.0592 54.857ZM66.1182 51.406C66.8368 52.7591 67.8419 53.9356 69.0592 54.857L70.2662 53.2623C69.2797 52.5156 68.466 51.5628 67.8845 50.4679L66.1182 51.406ZM66.1168 51.4033L66.1181 51.4058L67.8846 50.468L67.8832 50.4655L66.1168 51.4033ZM69.6331 48.4229L66.5352 50.049L67.4648 51.8198L70.5626 50.1937L69.6331 48.4229ZM73.261 50.4043L70.6925 48.5044L69.5031 50.1122L72.0715 52.0122L73.261 50.4043ZM71.8947 50.5698L71.8623 50.6136L73.4702 51.803L73.5026 51.7592L71.8947 50.5698ZM74.3033 50.8212C73.9295 50.7067 73.5732 50.5393 73.2418 50.3249L72.1555 52.0041C72.6371 52.3157 73.1613 52.5632 73.7178 52.7336L74.3033 50.8212ZM74.4331 52.685L74.4753 52.6628L73.5458 50.892L73.5036 50.9141L74.4331 52.685ZM75.3187 50.9982C74.9503 50.9877 74.5864 50.9328 74.2345 50.8356L73.7022 52.7635C74.2086 52.9033 74.7322 52.9824 75.2621 52.9974L75.3187 50.9982ZM75.4697 50.9999C75.4194 51.0002 75.369 50.9996 75.3187 50.9982L75.2621 52.9974C75.3345 52.9994 75.4069 53.0003 75.4792 52.9999L75.4697 50.9999ZM75.5025 51L75.4769 50.9999L75.472 52.9999L75.4975 53L75.5025 51ZM76.4374 50.8914C76.1357 50.9625 75.8223 51 75.5 51V53C75.9784 53 76.4457 52.9442 76.8961 52.8381L76.4374 50.8914ZM77.6212 50.4483C77.2509 50.6494 76.8558 50.7973 76.4475 50.8891L76.8861 52.8404C77.4735 52.7084 78.0424 52.4955 78.5758 52.2058L77.6212 50.4483ZM79.3286 48.8215C78.9149 49.504 78.3258 50.0656 77.6212 50.4483L78.5758 52.2058C79.5908 51.6545 80.441 50.8446 81.0389 49.8583L79.3286 48.8215ZM79.9775 46.564C79.9662 47.36 79.7424 48.139 79.3286 48.8215L81.0389 49.8583C81.6368 48.872 81.9608 47.745 81.9773 46.5926L79.9775 46.564ZM79.9779 46.5313L79.9775 46.5672L81.9774 46.5893L81.9778 46.5533L79.9779 46.5313ZM80 46C80 46.1555 79.9936 46.309 79.9812 46.4605L81.9745 46.6241C81.9914 46.4183 82 46.2101 82 46H80Z" fill="black" mask="url(#path-5-outside-2_424_160)"/>
<mask id="path-7-outside-3_424_160" maskUnits="userSpaceOnUse" x="85.3641" y="13.9907" width="22" height="22" fill="black">
<rect fill="white" x="85.3641" y="13.9907" width="22" height="22"/>
<path fill-rule="evenodd" clip-rule="evenodd" d="M90.2129 26.7928L87.3641 27.6051L87.3646 27.6068C87.7444 28.9377 88.4095 30.1666 89.3103 31.2096C89.4743 31.3994 89.646 31.5831 89.8253 31.7601C90.9899 32.9099 92.4318 33.7395 94.0112 34.1682C95.5906 34.597 97.2541 34.6104 98.8402 34.2072C100.426 33.8041 101.881 32.998 103.065 31.8671C104.248 30.7362 105.118 29.3188 105.593 27.7524C106.067 26.186 106.128 24.5237 105.771 22.9265C105.414 21.3294 104.65 19.8516 103.554 18.6364C103.385 18.4494 103.209 18.2696 103.027 18.0972C102.026 17.1504 100.828 16.4306 99.5154 15.9913L99.5138 15.9907L98.4034 19.3101L100.301 20.948L100.282 20.9704C101.411 21.9776 102.121 23.4433 102.121 25.075C102.121 28.1125 99.6586 30.575 96.621 30.575C95.0947 30.575 93.7135 29.9532 92.7171 28.9491L90.2129 26.7928Z"/>
</mask>
<path fill-rule="evenodd" clip-rule="evenodd" d="M90.2129 26.7928L87.3641 27.6051L87.3646 27.6068C87.7444 28.9377 88.4095 30.1666 89.3103 31.2096C89.4743 31.3994 89.646 31.5831 89.8253 31.7601C90.9899 32.9099 92.4318 33.7395 94.0112 34.1682C95.5906 34.597 97.2541 34.6104 98.8402 34.2072C100.426 33.8041 101.881 32.998 103.065 31.8671C104.248 30.7362 105.118 29.3188 105.593 27.7524C106.067 26.186 106.128 24.5237 105.771 22.9265C105.414 21.3294 104.65 19.8516 103.554 18.6364C103.385 18.4494 103.209 18.2696 103.027 18.0972C102.026 17.1504 100.828 16.4306 99.5154 15.9913L99.5138 15.9907L98.4034 19.3101L100.301 20.948L100.282 20.9704C101.411 21.9776 102.121 23.4433 102.121 25.075C102.121 28.1125 99.6586 30.575 96.621 30.575C95.0947 30.575 93.7135 29.9532 92.7171 28.9491L90.2129 26.7928Z" fill="black"/>
<path d="M87.3641 27.6051L87.0899 26.6434L86.1282 26.9177L86.4025 27.8794L87.3641 27.6051ZM90.2129 26.7928L90.8654 26.035L90.457 25.6833L89.9387 25.8311L90.2129 26.7928ZM87.3646 27.6068L86.403 27.8811L86.403 27.8812L87.3646 27.6068ZM89.3103 31.2096L88.5535 31.8632L88.5535 31.8632L89.3103 31.2096ZM89.8253 31.7601L90.5279 31.0485L90.5279 31.0485L89.8253 31.7601ZM94.0112 34.1682L93.7492 35.1333L93.7492 35.1333L94.0112 34.1682ZM98.8402 34.2072L99.0866 35.1764L99.0866 35.1764L98.8402 34.2072ZM103.065 31.8671L102.374 31.1442L102.374 31.1442L103.065 31.8671ZM105.593 27.7524L106.55 28.0422L106.55 28.0422L105.593 27.7524ZM105.771 22.9265L106.747 22.7083L106.747 22.7083L105.771 22.9265ZM103.554 18.6364L104.296 17.9666L104.296 17.9666L103.554 18.6364ZM103.027 18.0972L103.714 17.3706L103.714 17.3706L103.027 18.0972ZM99.5154 15.9913L99.8328 15.043L99.8326 15.0429L99.5154 15.9913ZM99.5138 15.9907L99.831 15.0424L98.8827 14.7251L98.5654 15.6735L99.5138 15.9907ZM98.4034 19.3101L97.455 18.9929L97.2422 19.629L97.75 20.0672L98.4034 19.3101ZM100.301 20.948L101.058 21.6013L101.712 20.8442L100.955 20.1909L100.301 20.948ZM100.282 20.9704L99.525 20.3171L98.8825 21.0616L99.6162 21.7164L100.282 20.9704ZM92.7171 28.9491L93.4269 28.2447L93.3993 28.2169L93.3696 28.1913L92.7171 28.9491ZM87.6384 28.5668L90.4871 27.7544L89.9387 25.8311L87.0899 26.6434L87.6384 28.5668ZM88.3263 27.3325L88.3258 27.3308L86.4025 27.8794L86.403 27.8811L88.3263 27.3325ZM90.0671 30.5559C89.2612 29.6228 88.666 28.5232 88.3262 27.3324L86.403 27.8812C86.8228 29.3522 87.5579 30.7105 88.5535 31.8632L90.0671 30.5559ZM90.5279 31.0485C90.3675 30.8901 90.2138 30.7258 90.0671 30.5559L88.5535 31.8632C88.7347 32.073 88.9246 32.276 89.1227 32.4716L90.5279 31.0485ZM94.2732 33.2031C92.86 32.8195 91.5699 32.0773 90.5279 31.0485L89.1227 32.4716C90.4098 33.7426 92.0035 34.6594 93.7492 35.1333L94.2732 33.2031ZM98.5939 33.2381C97.1747 33.5988 95.6864 33.5867 94.2732 33.2031L93.7492 35.1333C95.4949 35.6072 97.3334 35.622 99.0866 35.1764L98.5939 33.2381ZM102.374 31.1442C101.315 32.1561 100.013 32.8773 98.5939 33.2381L99.0866 35.1764C100.84 34.7308 102.448 33.8399 103.756 32.5899L102.374 31.1442ZM104.635 27.4627C104.211 28.8642 103.432 30.1324 102.374 31.1442L103.756 32.5899C105.063 31.34 106.026 29.7735 106.55 28.0422L104.635 27.4627ZM104.795 23.1448C105.115 24.5738 105.06 26.0612 104.635 27.4627L106.55 28.0422C107.074 26.3109 107.142 24.4736 106.747 22.7083L104.795 23.1448ZM102.811 19.3063C103.792 20.3936 104.475 21.7158 104.795 23.1448L106.747 22.7083C106.352 20.943 105.508 19.3097 104.296 17.9666L102.811 19.3063ZM102.34 18.8238C102.503 18.978 102.66 19.1389 102.811 19.3063L104.296 17.9666C104.11 17.7599 103.915 17.5611 103.714 17.3706L102.34 18.8238ZM99.198 16.9395C100.372 17.3326 101.444 17.9767 102.34 18.8238L103.714 17.3706C102.607 16.3241 101.283 15.5285 99.8328 15.043L99.198 16.9395ZM99.1965 16.9391L99.1981 16.9396L99.8326 15.0429L99.831 15.0424L99.1965 16.9391ZM99.3517 19.6273L100.462 16.308L98.5654 15.6735L97.455 18.9929L99.3517 19.6273ZM100.955 20.1909L99.0567 18.553L97.75 20.0672L99.6481 21.7051L100.955 20.1909ZM101.039 21.6237L101.058 21.6013L99.5443 20.2947L99.525 20.3171L101.039 21.6237ZM103.121 25.075C103.121 23.1465 102.28 21.4133 100.948 20.2243L99.6162 21.7164C100.541 22.542 101.121 23.7401 101.121 25.075H103.121ZM96.621 31.575C100.211 31.575 103.121 28.6648 103.121 25.075H101.121C101.121 27.5602 99.1063 29.575 96.621 29.575V31.575ZM92.0073 29.6535C93.1838 30.839 94.8174 31.575 96.621 31.575V29.575C95.3719 29.575 94.2433 29.0673 93.4269 28.2447L92.0073 29.6535ZM93.3696 28.1913L90.8654 26.035L89.5604 27.5505L92.0645 29.7069L93.3696 28.1913Z" fill="black" mask="url(#path-7-outside-3_424_160)"/>
<mask id="path-9-outside-4_424_160" maskUnits="userSpaceOnUse" x="0" y="0" width="105" height="122" fill="black">
<rect fill="white" width="105" height="122"/>
<path fill-rule="evenodd" clip-rule="evenodd" d="M103.426 103.426L100.75 100.75C99.4089 102.07 97.9587 103.284 96.414 104.38C89.3402 110.155 80.9371 114.131 71.9251 115.924C61.0621 118.085 49.8024 116.976 39.5697 112.737C29.3371 108.499 20.5911 101.321 14.4377 92.112C8.28434 82.9028 5 72.0758 5 61C5 49.9243 8.28434 39.0973 14.4377 29.8881C20.5911 20.6789 29.3371 13.5013 39.5697 9.26278C49.8024 5.02427 61.0621 3.91528 71.925 6.07605C81.2732 7.93551 89.9661 12.1445 97.1998 18.2733L97.2007 18.2723L97.3321 18.3857C97.4446 18.4816 97.5567 18.5779 97.6684 18.6747L97.6678 18.6754L100.301 20.948L100.282 20.9704C100.414 21.0878 100.539 21.2114 100.659 21.3408L103.426 18.5736C102.481 17.6279 101.506 16.7162 100.504 15.8396C92.6134 8.93759 83.0325 4.2071 72.7054 2.15291C61.0666 -0.162203 49.0026 1.026 38.039 5.56726C27.0754 10.1085 17.7047 17.7989 11.1118 27.6658C4.51894 37.5328 1 49.1332 1 61C1 72.8669 4.51894 84.4673 11.1118 94.3342C17.7047 104.201 27.0754 111.892 38.039 116.433C49.0026 120.974 61.0666 122.162 72.7054 119.847C83.0326 117.793 92.6134 113.062 100.504 106.16C101.506 105.284 102.481 104.372 103.426 103.426ZM89.8569 26.4862L92.7171 28.9491C92.7725 29.005 92.8291 29.0596 92.8869 29.1131L90.1579 31.8421C89.1973 30.8996 88.1939 30.0146 87.1516 29.1916L89.8569 26.4862Z"/>
</mask>
<path fill-rule="evenodd" clip-rule="evenodd" d="M103.426 103.426L100.75 100.75C99.4089 102.07 97.9587 103.284 96.414 104.38C89.3402 110.155 80.9371 114.131 71.9251 115.924C61.0621 118.085 49.8024 116.976 39.5697 112.737C29.3371 108.499 20.5911 101.321 14.4377 92.112C8.28434 82.9028 5 72.0758 5 61C5 49.9243 8.28434 39.0973 14.4377 29.8881C20.5911 20.6789 29.3371 13.5013 39.5697 9.26278C49.8024 5.02427 61.0621 3.91528 71.925 6.07605C81.2732 7.93551 89.9661 12.1445 97.1998 18.2733L97.2007 18.2723L97.3321 18.3857C97.4446 18.4816 97.5567 18.5779 97.6684 18.6747L97.6678 18.6754L100.301 20.948L100.282 20.9704C100.414 21.0878 100.539 21.2114 100.659 21.3408L103.426 18.5736C102.481 17.6279 101.506 16.7162 100.504 15.8396C92.6134 8.93759 83.0325 4.2071 72.7054 2.15291C61.0666 -0.162203 49.0026 1.026 38.039 5.56726C27.0754 10.1085 17.7047 17.7989 11.1118 27.6658C4.51894 37.5328 1 49.1332 1 61C1 72.8669 4.51894 84.4673 11.1118 94.3342C17.7047 104.201 27.0754 111.892 38.039 116.433C49.0026 120.974 61.0666 122.162 72.7054 119.847C83.0326 117.793 92.6134 113.062 100.504 106.16C101.506 105.284 102.481 104.372 103.426 103.426ZM89.8569 26.4862L92.7171 28.9491C92.7725 29.005 92.8291 29.0596 92.8869 29.1131L90.1579 31.8421C89.1973 30.8996 88.1939 30.0146 87.1516 29.1916L89.8569 26.4862Z" fill="black"/>
<path d="M100.75 100.75L101.457 100.043L100.756 99.3421L100.049 100.037L100.75 100.75ZM103.426 103.426L104.134 104.134L104.841 103.426L104.134 102.719L103.426 103.426ZM96.414 104.38L95.8352 103.565L95.8077 103.584L95.7816 103.606L96.414 104.38ZM71.9251 115.924L71.73 114.943L71.73 114.943L71.9251 115.924ZM39.5697 112.737L39.9524 111.813L39.9524 111.813L39.5697 112.737ZM5 61L6 61L6 61L5 61ZM14.4377 29.8881L13.6062 29.3325L13.6062 29.3325L14.4377 29.8881ZM39.5697 9.26278L39.187 8.3389L39.187 8.3389L39.5697 9.26278ZM71.925 6.07605L71.73 7.05684L71.73 7.05684L71.925 6.07605ZM97.1998 18.2733L96.5534 19.0362L97.3079 19.6755L97.9556 18.9281L97.1998 18.2733ZM97.2007 18.2723L97.854 17.5152L97.0985 16.8632L96.4449 17.6174L97.2007 18.2723ZM97.3321 18.3857L96.6788 19.1428L96.6833 19.1466L97.3321 18.3857ZM97.6684 18.6747L98.3766 19.3808L99.1339 18.6212L98.3232 17.9189L97.6684 18.6747ZM97.6678 18.6754L96.9596 17.9693L96.2009 18.7304L97.0145 19.4325L97.6678 18.6754ZM100.301 20.948L101.059 21.6013L101.712 20.8442L100.955 20.1909L100.301 20.948ZM100.282 20.9704L99.5249 20.3171L98.8825 21.0616L99.6162 21.7164L100.282 20.9704ZM100.659 21.3408L99.9251 22.0199L100.631 22.7831L101.366 22.0479L100.659 21.3408ZM103.426 18.5736L104.134 19.2807L104.841 18.5736L104.134 17.8665L103.426 18.5736ZM100.504 15.8396L101.162 15.0869L101.162 15.0869L100.504 15.8396ZM72.7054 2.15291L72.9005 1.17212L72.9005 1.17212L72.7054 2.15291ZM38.039 5.56726L38.4217 6.49114L38.4217 6.49114L38.039 5.56726ZM11.1118 27.6658L11.9433 28.2214L11.9433 28.2214L11.1118 27.6658ZM11.1118 94.3342L11.9433 93.7787L11.9433 93.7787L11.1118 94.3342ZM38.039 116.433L38.4217 115.509L38.4217 115.509L38.039 116.433ZM72.7054 119.847L72.5103 118.866L72.5103 118.866L72.7054 119.847ZM100.504 106.16L99.8452 105.408L99.8452 105.408L100.504 106.16ZM92.7171 28.9491L93.4268 28.2447L93.3993 28.2169L93.3696 28.1913L92.7171 28.9491ZM89.8569 26.4862L90.5095 25.7285L89.8061 25.1228L89.1498 25.7791L89.8569 26.4862ZM92.8869 29.1131L93.594 29.8202L94.3291 29.0851L93.566 28.3791L92.8869 29.1131ZM90.1579 31.8421L89.4576 32.5559L90.1646 33.2496L90.865 32.5492L90.1579 31.8421ZM87.1516 29.1916L86.4445 28.4845L85.6493 29.2796L86.5319 29.9764L87.1516 29.1916ZM100.043 101.458L102.719 104.134L104.134 102.719L101.457 100.043L100.043 101.458ZM96.9927 105.196C98.5808 104.069 100.072 102.82 101.452 101.463L100.049 100.037C98.7458 101.319 97.3366 102.499 95.8352 103.565L96.9927 105.196ZM72.1201 116.905C81.2931 115.08 89.8463 111.033 97.0464 105.155L95.7816 103.606C88.8341 109.277 80.581 113.183 71.73 114.943L72.1201 116.905ZM39.187 113.661C49.6024 117.975 61.0632 119.104 72.1201 116.905L71.73 114.943C61.061 117.065 50.0023 115.976 39.9524 111.813L39.187 113.661ZM13.6062 92.6675C19.8695 102.041 28.7717 109.347 39.187 113.661L39.9524 111.813C29.9025 107.651 21.3127 100.601 15.2692 91.5564L13.6062 92.6675ZM4 61C4 72.2736 7.34299 83.2939 13.6062 92.6675L15.2692 91.5564C9.22569 82.5117 6 71.878 6 61L4 61ZM13.6062 29.3325C7.34299 38.7061 4 49.7265 4 61L6 61C6 50.1221 9.22569 39.4884 15.2692 30.4437L13.6062 29.3325ZM39.187 8.3389C28.7717 12.6531 19.8695 19.9589 13.6062 29.3325L15.2692 30.4437C21.3126 21.399 29.9025 14.3495 39.9524 10.1867L39.187 8.3389ZM72.1201 5.09526C61.0632 2.89591 49.6024 4.0247 39.187 8.3389L39.9524 10.1867C50.0023 6.02383 61.061 4.93465 71.73 7.05684L72.1201 5.09526ZM97.8463 17.5103C90.4834 11.2721 81.6352 6.98793 72.1201 5.09526L71.73 7.05684C80.9112 8.88309 89.4489 13.0169 96.5534 19.0362L97.8463 17.5103ZM96.4449 17.6174L96.4441 17.6184L97.9556 18.9281L97.9564 18.9272L96.4449 17.6174ZM97.9854 17.6286L97.854 17.5152L96.5474 19.0294L96.6788 19.1428L97.9854 17.6286ZM98.3232 17.9189C98.2095 17.8204 98.0954 17.7223 97.9809 17.6247L96.6833 19.1466C96.7938 19.2408 96.9039 19.3355 97.0136 19.4305L98.3232 17.9189ZM98.376 19.3814L98.3766 19.3808L96.9602 17.9687L96.9596 17.9693L98.376 19.3814ZM100.955 20.1909L98.3211 17.9183L97.0145 19.4325L99.6481 21.7051L100.955 20.1909ZM101.039 21.6237L101.059 21.6013L99.5443 20.2947L99.5249 20.3171L101.039 21.6237ZM101.393 20.6617C101.252 20.5089 101.103 20.363 100.948 20.2243L99.6162 21.7164C99.7239 21.8126 99.827 21.9139 99.9251 22.0199L101.393 20.6617ZM102.719 17.8665L99.9521 20.6337L101.366 22.0479L104.134 19.2807L102.719 17.8665ZM99.8452 16.5922C100.831 17.4543 101.789 18.3508 102.719 19.2807L104.134 17.8665C103.172 16.9051 102.181 15.9782 101.162 15.0869L99.8452 16.5922ZM72.5103 3.13369C82.6653 5.15365 92.0865 9.80529 99.8452 16.5922L101.162 15.0869C93.1403 8.06988 83.3998 3.26056 72.9005 1.17212L72.5103 3.13369ZM38.4217 6.49114C49.2025 2.02557 61.0654 0.857168 72.5103 3.13369L72.9005 1.17212C61.0677 -1.18157 48.8026 0.0264315 37.6563 4.64338L38.4217 6.49114ZM11.9433 28.2214C18.4263 18.5189 27.6408 10.9567 38.4217 6.49114L37.6563 4.64338C26.51 9.26032 16.9831 17.0788 10.2804 27.1102L11.9433 28.2214ZM2 61C2 49.3309 5.46029 37.9239 11.9433 28.2214L10.2804 27.1102C3.57759 37.1416 0 48.9354 0 61H2ZM11.9433 93.7787C5.46029 84.0762 2 72.6691 2 61H0C0 73.0647 3.57759 84.8584 10.2804 94.8898L11.9433 93.7787ZM38.4217 115.509C27.6408 111.043 18.4263 103.481 11.9433 93.7787L10.2804 94.8898C16.9831 104.921 26.51 112.74 37.6563 117.357L38.4217 115.509ZM72.5103 118.866C61.0654 121.143 49.2025 119.974 38.4217 115.509L37.6563 117.357C48.8026 121.974 61.0677 123.182 72.9005 120.828L72.5103 118.866ZM99.8452 105.408C92.0865 112.195 82.6653 116.846 72.5103 118.866L72.9005 120.828C83.3998 118.739 93.1403 113.93 101.162 106.913L99.8452 105.408ZM102.719 102.719C101.789 103.649 100.831 104.546 99.8452 105.408L101.162 106.913C102.181 106.022 103.172 105.095 104.134 104.134L102.719 102.719ZM93.3696 28.1913L90.5095 25.7285L89.2044 27.244L92.0645 29.7069L93.3696 28.1913ZM92.0073 29.6535C92.0727 29.7195 92.1396 29.784 92.2078 29.8471L93.566 28.3791C93.5187 28.3353 93.4723 28.2905 93.4268 28.2447L92.0073 29.6535ZM92.1798 28.406L89.4508 31.135L90.865 32.5492L93.594 29.8202L92.1798 28.406ZM90.8583 31.1283C89.8726 30.1611 88.8423 29.2523 87.7713 28.4067L86.5319 29.9764C87.5456 30.7768 88.5221 31.638 89.4576 32.5559L90.8583 31.1283ZM87.8587 29.8987L90.5641 27.1933L89.1498 25.7791L86.4445 28.4845L87.8587 29.8987Z" fill="black" mask="url(#path-9-outside-4_424_160)"/>
<mask id="path-11-outside-5_424_160" maskUnits="userSpaceOnUse" x="34.7776" y="80.4976" width="19" height="22" fill="black">
<rect fill="white" x="34.7776" y="80.4976" width="19" height="22"/>
<path fill-rule="evenodd" clip-rule="evenodd" d="M39.1824 95.9118L36.7776 98.9279L36.7807 98.9304C37.8604 99.7905 39.1145 100.405 40.4557 100.731L40.4705 100.735C41.8186 101.06 43.2217 101.087 44.581 100.812C45.9404 100.537 47.2232 99.9684 48.3393 99.1452C49.4553 98.322 50.3776 97.2644 51.0414 96.0467C51.7051 94.829 52.0942 93.4808 52.1813 92.0967C52.2684 90.7126 52.0514 89.3262 51.5456 88.0349C51.0397 86.7436 50.2573 85.5787 49.2532 84.6221L49.2422 84.6116C48.2406 83.6603 47.0435 82.9388 45.7343 82.4976L44.4938 86.178L45.5163 86.9852C47.2121 87.922 48.3605 89.7282 48.3605 91.8027C48.3605 94.8402 45.8981 97.3027 42.8605 97.3027C41.5436 97.3027 40.3348 96.8399 39.3879 96.068L39.1824 95.9118Z"/>
</mask>
<path fill-rule="evenodd" clip-rule="evenodd" d="M39.1824 95.9118L36.7776 98.9279L36.7807 98.9304C37.8604 99.7905 39.1145 100.405 40.4557 100.731L40.4705 100.735C41.8186 101.06 43.2217 101.087 44.581 100.812C45.9404 100.537 47.2232 99.9684 48.3393 99.1452C49.4553 98.322 50.3776 97.2644 51.0414 96.0467C51.7051 94.829 52.0942 93.4808 52.1813 92.0967C52.2684 90.7126 52.0514 89.3262 51.5456 88.0349C51.0397 86.7436 50.2573 85.5787 49.2532 84.6221L49.2422 84.6116C48.2406 83.6603 47.0435 82.9388 45.7343 82.4976L44.4938 86.178L45.5163 86.9852C47.2121 87.922 48.3605 89.7282 48.3605 91.8027C48.3605 94.8402 45.8981 97.3027 42.8605 97.3027C41.5436 97.3027 40.3348 96.8399 39.3879 96.068L39.1824 95.9118Z" fill="black"/>
<path d="M36.7776 98.9279L35.9957 98.3045L35.3721 99.0867L36.1545 99.71L36.7776 98.9279ZM39.1824 95.9118L39.7873 95.1156L39.0095 94.5246L38.4005 95.2884L39.1824 95.9118ZM36.7807 98.9304L36.1576 99.7126L36.1577 99.7126L36.7807 98.9304ZM40.4557 100.731L40.2195 101.703L40.2202 101.703L40.4557 100.731ZM40.4705 100.735L40.235 101.707L40.2359 101.707L40.4705 100.735ZM48.3393 99.1452L48.9329 99.95L48.9329 99.95L48.3393 99.1452ZM51.5456 88.0349L52.4767 87.6702L52.4767 87.6701L51.5456 88.0349ZM49.2532 84.6221L49.9431 83.8981L49.9425 83.8975L49.2532 84.6221ZM49.2422 84.6116L49.9314 83.887L49.9308 83.8865L49.2422 84.6116ZM45.7343 82.4976L46.0537 81.55L45.1061 81.2306L44.7867 82.1782L45.7343 82.4976ZM44.4938 86.178L43.5462 85.8586L43.3212 86.5263L43.8742 86.9629L44.4938 86.178ZM45.5163 86.9852L44.8966 87.7701L44.961 87.8209L45.0327 87.8605L45.5163 86.9852ZM39.3879 96.068L40.0197 95.2929L40.0065 95.2821L39.9929 95.2717L39.3879 96.068ZM37.5595 99.5514L39.9643 96.5353L38.4005 95.2884L35.9957 98.3045L37.5595 99.5514ZM37.4039 98.1483L37.4007 98.1458L36.1545 99.71L36.1576 99.7126L37.4039 98.1483ZM40.692 99.7594C39.4919 99.4676 38.3698 98.9179 37.4038 98.1483L36.1577 99.7126C37.351 100.663 38.7371 101.342 40.2195 101.703L40.692 99.7594ZM40.706 99.7628L40.6912 99.7592L40.2202 101.703L40.235 101.707L40.706 99.7628ZM44.383 99.8317C43.1668 100.077 41.9114 100.054 40.7052 99.7626L40.2359 101.707C41.7259 102.066 43.2766 102.096 44.779 101.792L44.383 99.8317ZM47.7457 98.3405C46.7471 99.077 45.5993 99.586 44.383 99.8317L44.779 101.792C46.2815 101.489 47.6993 100.86 48.9329 99.95L47.7457 98.3405ZM50.1633 95.5681C49.5695 96.6576 48.7443 97.6039 47.7457 98.3405L48.9329 99.95C50.1664 99.0401 51.1858 97.8712 51.9194 96.5253L50.1633 95.5681ZM51.1833 92.0339C51.1053 93.2723 50.7572 94.4786 50.1633 95.5681L51.9194 96.5253C52.653 95.1794 53.0831 93.6893 53.1793 92.1595L51.1833 92.0339ZM50.6145 88.3996C51.0671 89.555 51.2612 90.7955 51.1833 92.0339L53.1793 92.1595C53.2756 90.6297 53.0358 89.0974 52.4767 87.6702L50.6145 88.3996ZM48.5634 85.3461C49.4618 86.202 50.1619 87.2443 50.6145 88.3996L52.4767 87.6701C51.9176 86.2429 51.0528 84.9554 49.9431 83.8981L48.5634 85.3461ZM48.553 85.3361L48.564 85.3466L49.9425 83.8975L49.9314 83.887L48.553 85.3361ZM45.4149 83.4452C46.5863 83.84 47.6573 84.4855 48.5535 85.3367L49.9308 83.8865C48.8238 82.835 47.5007 82.0377 46.0537 81.55L45.4149 83.4452ZM45.4415 86.4974L46.6819 82.817L44.7867 82.1782L43.5462 85.8586L45.4415 86.4974ZM46.1359 86.2003L45.1135 85.3931L43.8742 86.9629L44.8966 87.7701L46.1359 86.2003ZM49.3605 91.8027C49.3605 89.3497 48.0014 87.2156 45.9998 86.1099L45.0327 87.8605C46.4228 88.6284 47.3605 90.1067 47.3605 91.8027H49.3605ZM42.8605 98.3027C46.4504 98.3027 49.3605 95.3925 49.3605 91.8027H47.3605C47.3605 94.288 45.3458 96.3027 42.8605 96.3027V98.3027ZM38.7561 96.8431C39.8749 97.7551 41.3051 98.3027 42.8605 98.3027V96.3027C41.7821 96.3027 40.7948 95.9246 40.0197 95.2929L38.7561 96.8431ZM39.9929 95.2717L39.7873 95.1156L38.5775 96.7081L38.783 96.8643L39.9929 95.2717Z" fill="black" mask="url(#path-11-outside-5_424_160)"/>
<mask id="path-13-outside-6_424_160" maskUnits="userSpaceOnUse" x="15" y="15" width="79" height="86" fill="black">
<rect fill="white" x="15" y="15" width="79" height="86"/>
<path fill-rule="evenodd" clip-rule="evenodd" d="M45.0017 84.671L44.4938 86.178L42.6741 84.7414L43.3932 83.4959C43.9175 83.9019 44.4539 84.2938 45.0017 84.671ZM39.1823 95.9118L36.7793 98.9257C36.2193 98.5681 35.6677 98.1983 35.125 97.8169C31.0105 94.9252 27.4019 91.3586 24.4562 87.2594C20.7299 82.0737 18.15 76.1543 16.8878 69.8946C15.6256 63.6349 15.7101 57.1783 17.1357 50.9537C18.5613 44.7292 21.2954 38.8794 25.1562 33.793C29.0169 28.7067 33.916 24.5002 39.5279 21.4532C45.1397 18.4063 51.3358 16.5885 57.7043 16.1209C64.0728 15.6532 70.4679 16.5463 76.4647 18.7408C81.2051 20.4755 85.6107 22.9921 89.5023 26.1773C90.5337 27.0215 91.529 27.9127 92.4848 28.8487L89.9245 31.4633C88.0862 29.769 86.0615 28.264 83.8833 26.9801C81.151 25.1422 78.1996 23.6351 75.09 22.4971C69.6263 20.4977 63.7997 19.684 57.9972 20.1101C52.1948 20.5362 46.5495 22.1924 41.4365 24.9685C36.3235 27.7446 31.8599 31.5772 28.3423 36.2114C24.8247 40.8457 22.3337 46.1755 21.0348 51.8467C19.7359 57.518 19.6589 63.4007 20.8089 69.104C21.9589 74.8072 24.3095 80.2004 27.7046 84.9252C30.1764 88.3651 33.1606 91.3933 36.5454 93.9086L39.1823 95.9118Z"/>
</mask>
<path fill-rule="evenodd" clip-rule="evenodd" d="M45.0017 84.671L44.4938 86.178L42.6741 84.7414L43.3932 83.4959C43.9175 83.9019 44.4539 84.2938 45.0017 84.671ZM39.1823 95.9118L36.7793 98.9257C36.2193 98.5681 35.6677 98.1983 35.125 97.8169C31.0105 94.9252 27.4019 91.3586 24.4562 87.2594C20.7299 82.0737 18.15 76.1543 16.8878 69.8946C15.6256 63.6349 15.7101 57.1783 17.1357 50.9537C18.5613 44.7292 21.2954 38.8794 25.1562 33.793C29.0169 28.7067 33.916 24.5002 39.5279 21.4532C45.1397 18.4063 51.3358 16.5885 57.7043 16.1209C64.0728 15.6532 70.4679 16.5463 76.4647 18.7408C81.2051 20.4755 85.6107 22.9921 89.5023 26.1773C90.5337 27.0215 91.529 27.9127 92.4848 28.8487L89.9245 31.4633C88.0862 29.769 86.0615 28.264 83.8833 26.9801C81.151 25.1422 78.1996 23.6351 75.09 22.4971C69.6263 20.4977 63.7997 19.684 57.9972 20.1101C52.1948 20.5362 46.5495 22.1924 41.4365 24.9685C36.3235 27.7446 31.8599 31.5772 28.3423 36.2114C24.8247 40.8457 22.3337 46.1755 21.0348 51.8467C19.7359 57.518 19.6589 63.4007 20.8089 69.104C21.9589 74.8072 24.3095 80.2004 27.7046 84.9252C30.1764 88.3651 33.1606 91.3933 36.5454 93.9086L39.1823 95.9118Z" fill="black"/>
<path d="M44.4938 86.178L43.8741 86.9629L44.9881 87.8423L45.4414 86.4974L44.4938 86.178ZM45.0017 84.671L45.9493 84.9904L46.1904 84.2752L45.5688 83.8473L45.0017 84.671ZM42.6741 84.7414L41.8081 84.2414L41.3756 84.9904L42.0544 85.5263L42.6741 84.7414ZM43.3932 83.4959L44.0055 82.7052L43.0999 82.0039L42.5272 82.9959L43.3932 83.4959ZM36.7793 98.9257L36.2411 99.7685L36.9999 100.253L37.5612 99.5491L36.7793 98.9257ZM39.1823 95.9118L39.9642 96.5353L40.6024 95.7348L39.7873 95.1156L39.1823 95.9118ZM35.125 97.8169L35.7 96.9987L35.7 96.9987L35.125 97.8169ZM24.4562 87.2594L25.2683 86.6758L25.2683 86.6758L24.4562 87.2594ZM16.8878 69.8946L17.8681 69.6969L17.8681 69.6969L16.8878 69.8946ZM17.1357 50.9537L18.1105 51.177L18.1105 51.177L17.1357 50.9537ZM25.1562 33.793L25.9527 34.3976L25.9527 34.3976L25.1562 33.793ZM39.5279 21.4532L39.0507 20.5744L39.0507 20.5744L39.5279 21.4532ZM57.7043 16.1209L57.631 15.1235L57.631 15.1235L57.7043 16.1209ZM76.4647 18.7408L76.8083 17.8017L76.8083 17.8017L76.4647 18.7408ZM89.5023 26.1773L90.1357 25.4035L90.1357 25.4035L89.5023 26.1773ZM92.4848 28.8487L93.1993 29.5484L93.899 28.8339L93.1845 28.1343L92.4848 28.8487ZM89.9245 31.4633L89.2467 32.1986L89.9601 32.8561L90.6389 32.163L89.9245 31.4633ZM83.8833 26.9801L83.3252 27.8099L83.3499 27.8265L83.3756 27.8416L83.8833 26.9801ZM75.09 22.4971L75.4337 21.558L75.4337 21.558L75.09 22.4971ZM57.9972 20.1101L58.0705 21.1074L58.0705 21.1074L57.9972 20.1101ZM41.4365 24.9685L40.9593 24.0897L40.9593 24.0897L41.4365 24.9685ZM28.3423 36.2114L29.1388 36.816L29.1388 36.816L28.3423 36.2114ZM21.0348 51.8467L22.0096 52.07L22.0096 52.07L21.0348 51.8467ZM27.7046 84.9252L28.5167 84.3416L28.5167 84.3416L27.7046 84.9252ZM36.5454 93.9086L37.1504 93.1123L37.1419 93.1059L36.5454 93.9086ZM45.4414 86.4974L45.9493 84.9904L44.0541 84.3516L43.5461 85.8586L45.4414 86.4974ZM42.0544 85.5263L43.8741 86.9629L45.1134 85.3931L43.2937 83.9565L42.0544 85.5263ZM42.5272 82.9959L41.8081 84.2414L43.5401 85.2414L44.2592 83.9959L42.5272 82.9959ZM45.5688 83.8473C45.0363 83.4807 44.515 83.0998 44.0055 82.7052L42.7809 84.2865C43.32 84.7039 43.8714 85.1069 44.4346 85.4946L45.5688 83.8473ZM37.5612 99.5491L39.9642 96.5353L38.4004 95.2884L35.9974 98.3023L37.5612 99.5491ZM34.55 98.635C35.1048 99.025 35.6686 99.4029 36.2411 99.7685L37.3175 98.0829C36.77 97.7332 36.2307 97.3717 35.7 96.9987L34.55 98.635ZM23.6442 87.8429C26.6552 92.0333 30.3441 95.6791 34.55 98.635L35.7 96.9987C31.6769 94.1713 28.1485 90.684 25.2683 86.6758L23.6442 87.8429ZM15.9075 70.0922C17.1977 76.491 19.835 82.542 23.6442 87.8429L25.2683 86.6758C21.6248 81.6054 19.1022 75.8175 17.8681 69.6969L15.9075 70.0922ZM16.161 50.7305C14.7037 57.0933 14.6173 63.6934 15.9075 70.0922L17.8681 69.6969C16.6339 63.5763 16.7166 57.2632 18.1105 51.177L16.161 50.7305ZM24.3596 33.1884C20.4131 38.3879 17.6183 44.3677 16.161 50.7305L18.1105 51.177C19.5044 45.0908 22.1777 39.371 25.9527 34.3976L24.3596 33.1884ZM39.0507 20.5744C33.3142 23.6891 28.3062 27.989 24.3596 33.1884L25.9527 34.3976C29.7277 29.4243 34.5179 25.3113 40.005 22.3321L39.0507 20.5744ZM57.631 15.1235C51.121 15.6016 44.7872 17.4597 39.0507 20.5744L40.005 22.3321C45.4921 19.3528 51.5505 17.5754 57.7775 17.1182L57.631 15.1235ZM76.8083 17.8017C70.6783 15.5584 64.1411 14.6455 57.631 15.1235L57.7775 17.1182C64.0045 16.6609 70.2575 17.5341 76.121 19.6799L76.8083 17.8017ZM90.1357 25.4035C86.1576 22.1474 81.6541 19.575 76.8083 17.8017L76.121 19.6799C80.7561 21.376 85.0638 23.8367 88.8689 26.9512L90.1357 25.4035ZM93.1845 28.1343C92.2074 27.1774 91.19 26.2665 90.1357 25.4035L88.8689 26.9512C89.8774 27.7766 90.8506 28.648 91.7852 29.5632L93.1845 28.1343ZM90.6389 32.163L93.1993 29.5484L91.7704 28.1491L89.21 30.7636L90.6389 32.163ZM83.3756 27.8416C85.4928 29.0895 87.4605 30.5523 89.2467 32.1986L90.6022 30.728C88.7119 28.9858 86.6302 27.4384 84.3911 26.1186L83.3756 27.8416ZM74.7464 23.4362C77.7801 24.5464 80.6595 26.0168 83.3252 27.8099L84.4415 26.1504C81.6425 24.2676 78.6191 22.7237 75.4337 21.558L74.7464 23.4362ZM58.0705 21.1074C63.7314 20.6917 69.4159 21.4856 74.7464 23.4362L75.4337 21.558C69.8367 19.5098 63.868 18.6763 57.924 19.1128L58.0705 21.1074ZM41.9137 25.8473C46.902 23.1389 52.4096 21.5231 58.0705 21.1074L57.924 19.1128C51.98 19.5493 46.1971 21.2458 40.9593 24.0897L41.9137 25.8473ZM29.1388 36.816C32.5706 32.2948 36.9254 28.5557 41.9137 25.8473L40.9593 24.0897C35.7216 26.9335 31.1491 30.8596 27.5457 35.6068L29.1388 36.816ZM22.0096 52.07C23.2768 46.5371 25.707 41.3373 29.1388 36.816L27.5457 35.6068C23.9424 40.3541 21.3906 45.814 20.06 51.6235L22.0096 52.07ZM21.7892 68.9063C20.6672 63.3421 20.7424 57.6029 22.0096 52.07L20.06 51.6235C18.7295 57.433 18.6506 63.4592 19.8286 69.3016L21.7892 68.9063ZM28.5167 84.3416C25.2044 79.7321 22.9111 74.4705 21.7892 68.9063L19.8286 69.3016C21.0066 75.144 23.4146 80.6687 26.8925 85.5087L28.5167 84.3416ZM37.1419 93.1059C33.8396 90.652 30.9282 87.6977 28.5167 84.3416L26.8925 85.5087C29.4246 89.0325 32.4816 92.1346 35.949 94.7112L37.1419 93.1059ZM39.7873 95.1156L37.1504 93.1123L35.9405 94.7049L38.5774 96.7081L39.7873 95.1156Z" fill="black" mask="url(#path-13-outside-6_424_160)"/>
<circle cx="69" cy="100" r="9" fill="#E47777"/>
<circle cx="91" cy="91" r="9" fill="#97CFA3"/>
<circle cx="100" cy="47" r="9" fill="#EDBA7D"/>
<circle cx="102" cy="70" r="9" fill="#7B95D8"/>
</mask>
<g mask="url(#mask0_424_160)">
<circle cx="61" cy="61" r="63" fill="url(#paint0_linear_424_160)"/>
</g>
<defs>
<linearGradient id="paint0_linear_424_160" x1="61" y1="-2" x2="61" y2="124" gradientUnits="userSpaceOnUse">
<stop stop-color="#FF9900"/>
<stop offset="0.625" stop-color="#EDBA7D"/>
<stop offset="1" stop-color="#A390F4"/>
</linearGradient>
</defs>
</svg>
