<svg width="80" height="81" viewBox="0 0 80 81" fill="none" xmlns="http://www.w3.org/2000/svg">
<path fill-rule="evenodd" clip-rule="evenodd" d="M25.9988 58.6824L35.3964 79.4562C35.8203 80.3932 37.2124 80.157 37.3036 79.1326L39.0572 59.4276C37.4108 59.7544 35.7084 59.9258 33.966 59.9258C31.1869 59.9258 28.5095 59.4898 25.9988 58.6824ZM10.1124 23.5651C12.6424 17.7482 17.2377 13.0371 22.9726 10.3575L1.43351 0.100811C0.592117 -0.299851 -0.291639 0.566765 0.0924668 1.41584L10.1124 23.5651ZM59.1924 27.605C59.6977 29.6285 59.966 31.7458 59.966 33.9258C59.966 35.9861 59.7264 37.9905 59.2734 39.9125L78.936 39.0937C79.9782 39.0503 80.2661 37.6401 79.3243 37.1917L59.1924 27.605Z" fill="url(#paint0_linear)"/>
<circle cx="33.966" cy="33.9258" r="24" fill="url(#paint1_linear)"/>
<mask id="mask0" mask-type="alpha" maskUnits="userSpaceOnUse" x="9" y="9" width="49" height="49">
<circle cx="33.966" cy="33.9258" r="24" fill="black"/>
</mask>
<g mask="url(#mask0)">
<path d="M9.96603 37.9258H13.966C16.1752 37.9258 17.966 36.135 17.966 33.9258V25.9258C17.966 23.7167 19.7569 21.9258 21.966 21.9258V21.9258C24.1752 21.9258 25.966 23.7167 25.966 25.9258V45.9258C25.966 48.135 27.7569 49.9258 29.966 49.9258V49.9258C32.1752 49.9258 33.966 48.135 33.966 45.9258V37.9258C33.966 35.7167 35.7569 33.9258 37.966 33.9258V33.9258C40.1752 33.9258 41.966 35.7167 41.966 37.9258V41.9258C41.966 44.135 43.7569 45.9258 45.966 45.9258V45.9258C48.1752 45.9258 49.966 44.135 49.966 41.9258V33.9258C49.966 31.7167 51.7569 29.9258 53.966 29.9258H57.966" stroke="white" stroke-width="4"/>
</g>
<defs>
<linearGradient id="paint0_linear" x1="-1.03397" y1="-1.07418" x2="63.466" y2="61.9258" gradientUnits="userSpaceOnUse">
<stop stop-color="#A492F1"/>
<stop offset="1" stop-color="#4326B8"/>
</linearGradient>
<linearGradient id="paint1_linear" x1="20.966" y1="13.4258" x2="50.966" y2="51.4258" gradientUnits="userSpaceOnUse">
<stop stop-color="#D180EE"/>
<stop offset="1" stop-color="#7354F3"/>
</linearGradient>
</defs>
</svg>
